<?xml version="1.0" encoding="utf-8"?>
<!-- Generator: Adobe Illustrator 28.5.0, SVG Export Plug-In . SVG Version: 9.03 Build 54727)  -->
<svg version="1.0" id="katman_1" xmlns="http://www.w3.org/2000/svg" xmlns:xlink="http://www.w3.org/1999/xlink" x="0px" y="0px"
	 viewBox="0 0 841.9 595.3" style="enable-background:new 0 0 841.9 595.3;" xml:space="preserve">
<style type="text/css">
	.st0{fill:#0098EA;}
	.st1{fill:#FFFFFF;}
</style>
<path class="st0" d="M209,431.1c73.9,0,133.8-59.9,133.8-133.8S282.9,163.5,209,163.5S75.2,223.4,75.2,297.3S135.1,431.1,209,431.1z
	"/>
<path class="st1"  d="M254.7,238.2h-91.4c-16.8,0-27.4,18.1-19,32.8l56.4,97.8c3.7,6.4,12.9,6.4,16.6,0l56.4-97.8
	C282.1,256.3,271.5,238.2,254.7,238.2C254.7,238.2,254.7,238.2,254.7,238.2z M200.6,339.4l-12.3-23.8l-29.6-53
	c-1.4-2.5-0.5-5.6,1.9-7.1c0.8-0.5,1.7-0.7,2.6-0.7h37.3L200.6,339.4L200.6,339.4L200.6,339.4z M259.2,262.6l-29.6,53l-12.3,23.8
	v-84.5h37.4C258.8,254.8,261.2,259.2,259.2,262.6z"/>
<g>
	<path fill='#fff' d="M428.1,370.4h29.2V268.6h40.3v-27.7H387.7v27.7h40.3C428.1,268.6,428.1,370.4,428.1,370.4z M567.7,372.6
		c36.8,0,66.9-30.1,66.9-66.9s-30.1-66.9-66.9-66.9c-37,0-66.9,30.1-66.9,66.9S530.7,372.6,567.7,372.6z M567.7,344.5
		c-21.2,0-37.7-17.9-37.7-38.8s16.6-38.8,37.7-38.8c21,0,37.6,17.9,37.6,38.8S588.7,344.5,567.7,344.5z M767.7,370.4V240.9h-29.2
		v79.8l-62.9-79.8h-25v129.4h29v-80l63.1,80H767.7L767.7,370.4z"/>
</g>
</svg>
