<svg width="670" height="550" viewBox="0 0 670 550" fill="none" xmlns="http://www.w3.org/2000/svg">
<g filter="url(#filter0_f_359_300)">
<ellipse cx="335" cy="335.5" rx="235" ry="114.5" fill="#6AF3DE" fill-opacity="0.2"/>
</g>
<path d="M488.511 335.606C488.511 355.859 471.517 374.34 443.706 387.786C415.931 401.216 377.525 409.537 335.075 409.537C292.625 409.537 254.219 401.216 226.443 387.786C198.633 374.34 181.639 355.859 181.639 335.606C181.639 315.353 198.633 296.872 226.443 283.426C254.219 269.996 292.625 261.675 335.075 261.675C377.525 261.675 415.931 269.996 443.706 283.426C471.517 296.872 488.511 315.353 488.511 335.606Z" stroke="white"/>
<g filter="url(#filter1_f_359_300)">
<ellipse cx="335" cy="335.5" rx="154" ry="74.5" fill="#6AF3DE" fill-opacity="0.8"/>
</g>
<path d="M537.004 336.452C537.004 363.321 514.331 387.793 477.336 405.577C440.377 423.344 389.283 434.347 332.819 434.347C276.355 434.347 225.262 423.344 188.302 405.577C151.307 387.793 128.635 363.321 128.635 336.452C128.635 309.582 151.307 285.111 188.302 267.327C225.262 249.56 276.355 238.557 332.819 238.557C389.283 238.557 440.377 249.56 477.336 267.327C514.331 285.111 537.004 309.582 537.004 336.452Z" stroke="white" stroke-opacity="0.5"/>
<path d="M588.316 336.451C588.316 370.171 559.806 400.846 513.372 423.12C466.974 445.377 402.841 459.157 331.974 459.157C261.107 459.157 196.973 445.377 150.575 423.12C104.141 400.846 75.6313 370.171 75.6313 336.451C75.6313 302.732 104.141 272.057 150.575 249.783C196.973 227.526 261.107 213.746 331.974 213.746C402.841 213.746 466.974 227.526 513.372 249.783C559.806 272.057 588.316 302.732 588.316 336.451Z" stroke="white" stroke-opacity="0.25"/>
<path d="M638.5 336.452C638.5 376.866 604.155 413.602 548.281 440.264C492.444 466.909 415.27 483.403 330 483.403C244.73 483.403 167.556 466.909 111.719 440.264C55.8454 413.602 21.5 376.866 21.5 336.452C21.5 296.038 55.8454 259.301 111.719 232.639C167.556 205.994 244.73 189.5 330 189.5C415.27 189.5 492.444 205.994 548.281 232.639C604.155 259.301 638.5 296.038 638.5 336.452Z" stroke="white" stroke-opacity="0.12"/>
<g filter="url(#filter2_f_359_300)">
<rect x="185.423" y="8.42676" width="96.1539" height="96.2181" rx="48.0769" fill="white"/>
<rect x="186.423" y="9.42676" width="94.1539" height="94.2181" rx="47.0769" stroke="url(#paint0_linear_359_300)" stroke-opacity="0.4" stroke-width="2"/>
</g>
<g filter="url(#filter3_bi_359_300)">
<rect x="185.423" y="8.42676" width="96.1539" height="96.2181" rx="48.0769" fill="white" fill-opacity="0.2"/>
<rect x="185.923" y="8.92676" width="95.1539" height="95.2181" rx="47.5769" stroke="white"/>
</g>
<path d="M224.373 81L210 66.6267C210 69.5333 210.107 72.2267 210.533 74.68C210.933 77.1333 211.333 78.6 211.893 79.1067C212.4 79.6667 213.84 80.0667 216.267 80.4933C218.693 80.92 221.387 81 224.373 81ZM243.333 51.3733L228.373 66.3333L224.667 62.6267L239.627 47.6667L243.333 51.3733ZM210.773 59.88L231.12 80.2267C238.533 78.8933 244.4 76.0667 248.747 71.7467C253.067 67.4 255.893 61.5333 257.227 54.12L236.88 33.7733C229.467 35.1067 223.6 37.9333 219.253 42.2533C214.907 46.5733 212.107 52.4667 210.773 59.88ZM243.627 33L258 47.3733C258 44.4667 257.893 41.7733 257.493 39.32C257.067 36.8667 256.667 35.4 256.107 34.8933C255.6 34.3333 254.16 33.9333 251.733 33.5333C249.307 33.1333 246.613 33 243.627 33Z" fill="url(#paint1_linear_359_300)"/>
<rect x="182" y="5" width="103" height="103.07" rx="51.5" stroke="white" stroke-opacity="0.2" stroke-width="2"/>
<g filter="url(#filter4_f_359_300)">
<rect x="158.982" y="186.986" width="130.037" height="130.123" rx="65.0183" fill="white"/>
<rect x="159.982" y="187.986" width="128.037" height="128.123" rx="64.0183" stroke="url(#paint2_linear_359_300)" stroke-opacity="0.4" stroke-width="2"/>
</g>
<g filter="url(#filter5_bi_359_300)">
<rect x="158.982" y="186.986" width="130.037" height="130.123" rx="65.0183" fill="white" fill-opacity="0.2"/>
<rect x="159.482" y="187.486" width="129.037" height="129.123" rx="64.5183" stroke="white"/>
</g>
<path d="M239.467 231.4C237.189 228.798 235.933 225.458 235.933 222H225.633V263.333C225.556 265.571 224.612 267.69 223.001 269.245C221.39 270.8 219.239 271.668 217 271.667C212.267 271.667 208.333 267.8 208.333 263C208.333 257.267 213.867 252.967 219.567 254.733V244.2C208.067 242.667 198 251.6 198 263C198 274.1 207.2 282 216.967 282C227.433 282 235.933 273.5 235.933 263V242.033C240.11 245.033 245.125 246.642 250.267 246.633V236.333C250.267 236.333 244 236.633 239.467 231.4Z" fill="url(#paint3_linear_359_300)"/>
<rect x="154" y="182" width="140" height="140.095" rx="70" stroke="white" stroke-opacity="0.2" stroke-width="2"/>
<g filter="url(#filter6_f_359_300)">
<rect x="335.004" y="55.7939" width="173.993" height="174.109" rx="86.9963" fill="white"/>
<rect x="336.004" y="56.7939" width="171.993" height="172.109" rx="85.9963" stroke="url(#paint4_linear_359_300)" stroke-opacity="0.4" stroke-width="2"/>
</g>
<g filter="url(#filter7_bi_359_300)">
<rect x="335.004" y="55.7939" width="173.993" height="174.109" rx="86.9963" fill="white" fill-opacity="0.2"/>
<rect x="335.504" y="56.2939" width="172.993" height="173.109" rx="86.4963" stroke="white"/>
</g>
<rect x="328" y="48.7842" width="188" height="188.127" rx="94" stroke="white" stroke-opacity="0.2" stroke-width="2"/>
<path d="M460.786 172.613C456.704 174.625 451.262 173.284 448.541 169.26L441.058 159.872H404.322L396.838 169.26C393.437 173.954 387.314 174.625 382.552 171.272C379.151 168.589 377.79 164.566 378.47 161.213L383.232 136.401C384.593 128.353 392.076 122.318 400.24 122.318H419.288V112.259C419.288 106.894 423.37 102.2 428.812 102.2H449.901C451.942 102.2 453.303 103.541 453.303 105.553C453.303 107.565 451.942 108.906 449.901 108.906H429.493C427.452 108.906 426.091 110.247 426.091 111.589V122.318H445.139C453.303 122.318 460.786 128.353 462.147 136.401L466.909 161.213C467.589 165.907 465.548 170.601 460.786 172.613ZM412.485 139.083C412.485 133.718 407.723 129.024 402.281 129.024C396.838 129.024 392.076 133.718 392.076 139.083C392.076 144.448 396.838 149.142 402.281 149.142C407.723 149.142 412.485 144.448 412.485 139.083ZM453.303 139.083C453.303 137.071 451.942 135.73 449.901 135.73H446.5V132.377C446.5 130.365 445.139 129.024 443.098 129.024C441.058 129.024 439.697 130.365 439.697 132.377V135.73H436.295C434.255 135.73 432.894 137.071 432.894 139.083C432.894 141.095 434.255 142.436 436.295 142.436H439.697V145.789C439.697 147.801 441.058 149.142 443.098 149.142C445.139 149.142 446.5 147.801 446.5 145.789V142.436H449.901C451.942 142.436 453.303 141.095 453.303 139.083Z" fill="url(#paint5_linear_359_300)"/>
<defs>
<filter id="filter0_f_359_300" x="0" y="121" width="670" height="429" filterUnits="userSpaceOnUse" color-interpolation-filters="sRGB">
<feFlood flood-opacity="0" result="BackgroundImageFix"/>
<feBlend mode="normal" in="SourceGraphic" in2="BackgroundImageFix" result="shape"/>
<feGaussianBlur stdDeviation="50" result="effect1_foregroundBlur_359_300"/>
</filter>
<filter id="filter1_f_359_300" x="81" y="161" width="508" height="349" filterUnits="userSpaceOnUse" color-interpolation-filters="sRGB">
<feFlood flood-opacity="0" result="BackgroundImageFix"/>
<feBlend mode="normal" in="SourceGraphic" in2="BackgroundImageFix" result="shape"/>
<feGaussianBlur stdDeviation="50" result="effect1_foregroundBlur_359_300"/>
</filter>
<filter id="filter2_f_359_300" x="177.423" y="0.426758" width="112.154" height="112.218" filterUnits="userSpaceOnUse" color-interpolation-filters="sRGB">
<feFlood flood-opacity="0" result="BackgroundImageFix"/>
<feBlend mode="normal" in="SourceGraphic" in2="BackgroundImageFix" result="shape"/>
<feGaussianBlur stdDeviation="4" result="effect1_foregroundBlur_359_300"/>
</filter>
<filter id="filter3_bi_359_300" x="161.673" y="-15.3232" width="143.654" height="143.718" filterUnits="userSpaceOnUse" color-interpolation-filters="sRGB">
<feFlood flood-opacity="0" result="BackgroundImageFix"/>
<feGaussianBlur in="BackgroundImageFix" stdDeviation="11.875"/>
<feComposite in2="SourceAlpha" operator="in" result="effect1_backgroundBlur_359_300"/>
<feBlend mode="normal" in="SourceGraphic" in2="effect1_backgroundBlur_359_300" result="shape"/>
<feColorMatrix in="SourceAlpha" type="matrix" values="0 0 0 0 0 0 0 0 0 0 0 0 0 0 0 0 0 0 127 0" result="hardAlpha"/>
<feOffset dy="2.375"/>
<feGaussianBlur stdDeviation="4.75"/>
<feComposite in2="hardAlpha" operator="arithmetic" k2="-1" k3="1"/>
<feColorMatrix type="matrix" values="0 0 0 0 1 0 0 0 0 1 0 0 0 0 1 0 0 0 0.4 0"/>
<feBlend mode="normal" in2="shape" result="effect2_innerShadow_359_300"/>
</filter>
<filter id="filter4_f_359_300" x="150.982" y="178.986" width="146.037" height="146.124" filterUnits="userSpaceOnUse" color-interpolation-filters="sRGB">
<feFlood flood-opacity="0" result="BackgroundImageFix"/>
<feBlend mode="normal" in="SourceGraphic" in2="BackgroundImageFix" result="shape"/>
<feGaussianBlur stdDeviation="4" result="effect1_foregroundBlur_359_300"/>
</filter>
<filter id="filter5_bi_359_300" x="135.232" y="163.236" width="177.537" height="177.624" filterUnits="userSpaceOnUse" color-interpolation-filters="sRGB">
<feFlood flood-opacity="0" result="BackgroundImageFix"/>
<feGaussianBlur in="BackgroundImageFix" stdDeviation="11.875"/>
<feComposite in2="SourceAlpha" operator="in" result="effect1_backgroundBlur_359_300"/>
<feBlend mode="normal" in="SourceGraphic" in2="effect1_backgroundBlur_359_300" result="shape"/>
<feColorMatrix in="SourceAlpha" type="matrix" values="0 0 0 0 0 0 0 0 0 0 0 0 0 0 0 0 0 0 127 0" result="hardAlpha"/>
<feOffset dy="2.375"/>
<feGaussianBlur stdDeviation="4.75"/>
<feComposite in2="hardAlpha" operator="arithmetic" k2="-1" k3="1"/>
<feColorMatrix type="matrix" values="0 0 0 0 1 0 0 0 0 1 0 0 0 0 1 0 0 0 0.4 0"/>
<feBlend mode="normal" in2="shape" result="effect2_innerShadow_359_300"/>
</filter>
<filter id="filter6_f_359_300" x="327.004" y="47.7939" width="189.993" height="190.109" filterUnits="userSpaceOnUse" color-interpolation-filters="sRGB">
<feFlood flood-opacity="0" result="BackgroundImageFix"/>
<feBlend mode="normal" in="SourceGraphic" in2="BackgroundImageFix" result="shape"/>
<feGaussianBlur stdDeviation="4" result="effect1_foregroundBlur_359_300"/>
</filter>
<filter id="filter7_bi_359_300" x="311.254" y="32.0439" width="221.493" height="221.609" filterUnits="userSpaceOnUse" color-interpolation-filters="sRGB">
<feFlood flood-opacity="0" result="BackgroundImageFix"/>
<feGaussianBlur in="BackgroundImageFix" stdDeviation="11.875"/>
<feComposite in2="SourceAlpha" operator="in" result="effect1_backgroundBlur_359_300"/>
<feBlend mode="normal" in="SourceGraphic" in2="effect1_backgroundBlur_359_300" result="shape"/>
<feColorMatrix in="SourceAlpha" type="matrix" values="0 0 0 0 0 0 0 0 0 0 0 0 0 0 0 0 0 0 127 0" result="hardAlpha"/>
<feOffset dy="2.375"/>
<feGaussianBlur stdDeviation="4.75"/>
<feComposite in2="hardAlpha" operator="arithmetic" k2="-1" k3="1"/>
<feColorMatrix type="matrix" values="0 0 0 0 1 0 0 0 0 1 0 0 0 0 1 0 0 0 0.4 0"/>
<feBlend mode="normal" in2="shape" result="effect2_innerShadow_359_300"/>
</filter>
<linearGradient id="paint0_linear_359_300" x1="233.5" y1="8.42676" x2="233.5" y2="104.645" gradientUnits="userSpaceOnUse">
<stop stop-color="white"/>
<stop offset="1" stop-color="white" stop-opacity="0"/>
</linearGradient>
<linearGradient id="paint1_linear_359_300" x1="234" y1="33" x2="234" y2="81" gradientUnits="userSpaceOnUse">
<stop stop-color="#13002F"/>
<stop offset="1" stop-color="#13002F" stop-opacity="0.4"/>
</linearGradient>
<linearGradient id="paint2_linear_359_300" x1="224" y1="186.986" x2="224" y2="317.11" gradientUnits="userSpaceOnUse">
<stop stop-color="white"/>
<stop offset="1" stop-color="white" stop-opacity="0"/>
</linearGradient>
<linearGradient id="paint3_linear_359_300" x1="224.133" y1="222" x2="224.133" y2="282" gradientUnits="userSpaceOnUse">
<stop stop-color="#13002F"/>
<stop offset="1" stop-color="#13002F" stop-opacity="0.4"/>
</linearGradient>
<linearGradient id="paint4_linear_359_300" x1="422" y1="55.7939" x2="422" y2="229.903" gradientUnits="userSpaceOnUse">
<stop stop-color="white"/>
<stop offset="1" stop-color="white" stop-opacity="0"/>
</linearGradient>
<linearGradient id="paint5_linear_359_300" x1="422.668" y1="102.2" x2="422.668" y2="173.537" gradientUnits="userSpaceOnUse">
<stop stop-color="#13002F"/>
<stop offset="1" stop-color="#13002F" stop-opacity="0.4"/>
</linearGradient>
</defs>
</svg>
