<svg width="368" height="112" viewBox="0 0 368 112" fill="none" xmlns="http://www.w3.org/2000/svg">
<path d="M214 56H368" stroke="url(#paint0_linear_2004_2473)" stroke-opacity="0.32" stroke-width="2" stroke-dasharray="4 4"/>
<path d="M154 56H-3.33786e-06" stroke="url(#paint1_linear_2004_2473)" stroke-opacity="0.32" stroke-width="2" stroke-dasharray="4 4"/>
<path d="M184 26L184 -9.53674e-07" stroke="url(#paint2_linear_2004_2473)" stroke-opacity="0.32" stroke-width="2" stroke-dasharray="4 4"/>
<path d="M184 86L184 112" stroke="url(#paint3_linear_2004_2473)" stroke-opacity="0.32" stroke-width="2" stroke-dasharray="4 4"/>
<rect x="156" y="28" width="56" height="56" rx="4" fill="white" fill-opacity="0.08"/>
<rect x="157" y="29" width="54" height="54" rx="3" stroke="white" stroke-opacity="0.32" stroke-width="2"/>
<rect x="212" y="52" width="2" height="8" fill="#9488B8"/>
<rect x="154" y="52" width="2" height="8" fill="#9488B8"/>
<rect x="188" y="26" width="2" height="8" transform="rotate(90 188 26)" fill="#9488B8"/>
<rect x="188" y="84" width="2" height="8" transform="rotate(90 188 84)" fill="#9488B8"/>
<path d="M190.444 66V45H197V66H190.444Z" fill="url(#paint4_linear_2004_2473)"/>
<path d="M182.376 66L181.759 62.94H176.496L175.879 66H169L174.35 45H183.934L189.255 66H182.376ZM177.643 57.15H180.583L179.172 50.1H179.054L177.643 57.15Z" fill="url(#paint5_linear_2004_2473)"/>
<defs>
<linearGradient id="paint0_linear_2004_2473" x1="214" y1="56.5" x2="368" y2="56.5" gradientUnits="userSpaceOnUse">
<stop stop-color="white"/>
<stop offset="1" stop-color="white" stop-opacity="0"/>
</linearGradient>
<linearGradient id="paint1_linear_2004_2473" x1="154" y1="56.5" x2="0" y2="56.5" gradientUnits="userSpaceOnUse">
<stop stop-color="white"/>
<stop offset="1" stop-color="white" stop-opacity="0"/>
</linearGradient>
<linearGradient id="paint2_linear_2004_2473" x1="184.5" y1="26" x2="184.5" y2="2.18557e-08" gradientUnits="userSpaceOnUse">
<stop stop-color="white"/>
<stop offset="1" stop-color="white" stop-opacity="0"/>
</linearGradient>
<linearGradient id="paint3_linear_2004_2473" x1="184.5" y1="86" x2="184.5" y2="112" gradientUnits="userSpaceOnUse">
<stop stop-color="white"/>
<stop offset="1" stop-color="white" stop-opacity="0"/>
</linearGradient>
<linearGradient id="paint4_linear_2004_2473" x1="169" y1="76.5" x2="197" y2="76.5" gradientUnits="userSpaceOnUse">
<stop stop-color="#E6FF67"/>
<stop offset="0.333333" stop-color="#DEA6F8"/>
<stop offset="0.666667" stop-color="#DEA6F8"/>
<stop offset="1" stop-color="#69F3DE"/>
</linearGradient>
<linearGradient id="paint5_linear_2004_2473" x1="169" y1="76.5" x2="197" y2="76.5" gradientUnits="userSpaceOnUse">
<stop stop-color="#E6FF67"/>
<stop offset="0.333333" stop-color="#DEA6F8"/>
<stop offset="0.666667" stop-color="#DEA6F8"/>
<stop offset="1" stop-color="#69F3DE"/>
</linearGradient>
</defs>
</svg>
