<svg width="344" height="117" viewBox="0 0 344 117" fill="none" xmlns="http://www.w3.org/2000/svg">
<path d="M155 41H12C7.58172 41 4 37.4183 4 33V29" stroke="white" stroke-opacity="0.2" stroke-width="2" stroke-dasharray="4 4"/>
<rect y="21" width="8" height="8" fill="url(#paint0_linear_359_132)"/>
<path d="M189 41H332C336.418 41 340 37.4183 340 33V29" stroke="white" stroke-opacity="0.2" stroke-width="2" stroke-dasharray="4 4"/>
<rect width="8" height="8" transform="matrix(-1 0 0 1 344 21)" fill="url(#paint1_linear_359_132)"/>
<path d="M155 80H60C55.5817 80 52 76.4183 52 72V64" stroke="white" stroke-opacity="0.2" stroke-width="2" stroke-dasharray="4 4"/>
<rect x="48" y="56" width="8" height="8" fill="url(#paint2_linear_359_132)"/>
<path d="M189 80H284C288.418 80 292 76.4183 292 72V64" stroke="white" stroke-opacity="0.2" stroke-width="2" stroke-dasharray="4 4"/>
<rect width="8" height="8" transform="matrix(-1 0 0 1 296 56)" fill="url(#paint3_linear_359_132)"/>
<g filter="url(#filter0_bf_359_132)">
<circle cx="172.347" cy="58.3469" r="34.3469" fill="url(#paint4_linear_359_132)"/>
</g>
<defs>
<filter id="filter0_bf_359_132" x="114" y="0" width="116.694" height="116.694" filterUnits="userSpaceOnUse" color-interpolation-filters="sRGB">
<feFlood flood-opacity="0" result="BackgroundImageFix"/>
<feGaussianBlur in="BackgroundImageFix" stdDeviation="4"/>
<feComposite in2="SourceAlpha" operator="in" result="effect1_backgroundBlur_359_132"/>
<feBlend mode="normal" in="SourceGraphic" in2="effect1_backgroundBlur_359_132" result="shape"/>
<feGaussianBlur stdDeviation="12" result="effect2_foregroundBlur_359_132"/>
</filter>
<linearGradient id="paint0_linear_359_132" x1="8" y1="21" x2="-4.76837e-07" y2="29" gradientUnits="userSpaceOnUse">
<stop stop-color="#69F3DE"/>
<stop offset="0.503541" stop-color="#E6FF67"/>
<stop offset="1" stop-color="#DEA6F8"/>
</linearGradient>
<linearGradient id="paint1_linear_359_132" x1="8" y1="-4.76837e-07" x2="-4.76837e-07" y2="8" gradientUnits="userSpaceOnUse">
<stop stop-color="#69F3DE"/>
<stop offset="0.503541" stop-color="#E6FF67"/>
<stop offset="1" stop-color="#DEA6F8"/>
</linearGradient>
<linearGradient id="paint2_linear_359_132" x1="56" y1="56" x2="48" y2="64" gradientUnits="userSpaceOnUse">
<stop stop-color="#69F3DE"/>
<stop offset="0.503541" stop-color="#E6FF67"/>
<stop offset="1" stop-color="#DEA6F8"/>
</linearGradient>
<linearGradient id="paint3_linear_359_132" x1="8" y1="-4.76837e-07" x2="-4.76837e-07" y2="8" gradientUnits="userSpaceOnUse">
<stop stop-color="#69F3DE"/>
<stop offset="0.503541" stop-color="#E6FF67"/>
<stop offset="1" stop-color="#DEA6F8"/>
</linearGradient>
<linearGradient id="paint4_linear_359_132" x1="138" y1="127.041" x2="206.694" y2="127.041" gradientUnits="userSpaceOnUse">
<stop stop-color="#E6FF67"/>
<stop offset="0.333333" stop-color="#DEA6F8"/>
<stop offset="0.666667" stop-color="#DEA6F8"/>
<stop offset="1" stop-color="#69F3DE"/>
</linearGradient>
</defs>
</svg>
