<svg width="210" height="159" viewBox="0 0 210 159" fill="none" xmlns="http://www.w3.org/2000/svg">
<path d="M1 46.5C1 45.9477 1.44772 45.5 2 45.5H8C8.55228 45.5 9 45.9477 9 46.5V99.5C9 100.052 8.55228 100.5 8 100.5H2C1.44772 100.5 1 100.052 1 99.5V46.5Z" fill="url(#paint0_linear_2016_1494)"/>
<path d="M5 100.5L5 112.5M5 45.5L5 33.5M2 100.5H8C8.55228 100.5 9 100.052 9 99.5V46.5C9 45.9477 8.55228 45.5 8 45.5H2C1.44772 45.5 1 45.9477 1 46.5V99.5C1 100.052 1.44772 100.5 2 100.5Z" stroke="url(#paint1_linear_2016_1494)" stroke-width="2"/>
<path d="M21 30.5C21 29.9477 21.4477 29.5 22 29.5H28C28.5523 29.5 29 29.9477 29 30.5V91.5C29 92.0523 28.5523 92.5 28 92.5H22C21.4477 92.5 21 92.0523 21 91.5V30.5Z" fill="url(#paint2_linear_2016_1494)"/>
<path d="M25 92.5L25 120.5M25 29.5L25 23.5M22 92.5H28C28.5523 92.5 29 92.0523 29 91.5V30.5C29 29.9477 28.5523 29.5 28 29.5H22C21.4477 29.5 21 29.9477 21 30.5V91.5C21 92.0523 21.4477 92.5 22 92.5Z" stroke="url(#paint3_linear_2016_1494)" stroke-width="2"/>
<path d="M41 21.5C41 20.9477 41.4477 20.5 42 20.5H48C48.5523 20.5 49 20.9477 49 21.5V34.5C49 35.0523 48.5523 35.5 48 35.5H42C41.4477 35.5 41 35.0523 41 34.5V21.5Z" fill="url(#paint4_linear_2016_1494)"/>
<path d="M45 35.5L45 79.5M45 20.5L45 0.5M42 35.5H48C48.5523 35.5 49 35.0523 49 34.5V21.5C49 20.9477 48.5523 20.5 48 20.5H42C41.4477 20.5 41 20.9477 41 21.5V34.5C41 35.0523 41.4477 35.5 42 35.5Z" stroke="url(#paint5_linear_2016_1494)" stroke-width="2"/>
<path d="M61 38.5C61 37.9477 61.4477 37.5 62 37.5H68C68.5523 37.5 69 37.9477 69 38.5V92.5C69 93.0523 68.5523 93.5 68 93.5H62C61.4477 93.5 61 93.0523 61 92.5V38.5Z" fill="url(#paint6_linear_2016_1494)"/>
<path d="M65 93.5L65 104.5M65 37.5L65 9.5M62 93.5H68C68.5523 93.5 69 93.0523 69 92.5V38.5C69 37.9477 68.5523 37.5 68 37.5H62C61.4477 37.5 61 37.9477 61 38.5V92.5C61 93.0523 61.4477 93.5 62 93.5Z" stroke="url(#paint7_linear_2016_1494)" stroke-width="2"/>
<path d="M81 29.5C81 28.9477 81.4477 28.5 82 28.5H88C88.5523 28.5 89 28.9477 89 29.5V67.5C89 68.0523 88.5523 68.5 88 68.5H82C81.4477 68.5 81 68.0523 81 67.5V29.5Z" fill="url(#paint8_linear_2016_1494)"/>
<path d="M85 68.5L85 79.5M85 28.5L85 0.5M82 68.5H88C88.5523 68.5 89 68.0523 89 67.5V29.5C89 28.9477 88.5523 28.5 88 28.5H82C81.4477 28.5 81 28.9477 81 29.5V67.5C81 68.0523 81.4477 68.5 82 68.5Z" stroke="url(#paint9_linear_2016_1494)" stroke-width="2"/>
<path d="M101 54.5C101 53.9477 101.448 53.5 102 53.5H108C108.552 53.5 109 53.9477 109 54.5V100.5C109 101.052 108.552 101.5 108 101.5H102C101.448 101.5 101 101.052 101 100.5V54.5Z" fill="url(#paint10_linear_2016_1494)"/>
<path d="M105 101.5L105 120.5M105 53.5L105 33.5M102 101.5H108C108.552 101.5 109 101.052 109 100.5V54.5C109 53.9477 108.552 53.5 108 53.5H102C101.448 53.5 101 53.9477 101 54.5V100.5C101 101.052 101.448 101.5 102 101.5Z" stroke="url(#paint11_linear_2016_1494)" stroke-width="2"/>
<path d="M121 52.5C121 51.9477 121.448 51.5 122 51.5H128C128.552 51.5 129 51.9477 129 52.5V82.5C129 83.0523 128.552 83.5 128 83.5H122C121.448 83.5 121 83.0523 121 82.5V52.5Z" fill="url(#paint12_linear_2016_1494)"/>
<path d="M125 83.5L125 94.5M125 51.5L125 15.5M122 83.5H128C128.552 83.5 129 83.0523 129 82.5V52.5C129 51.9477 128.552 51.5 128 51.5H122C121.448 51.5 121 51.9477 121 52.5V82.5C121 83.0523 121.448 83.5 122 83.5Z" stroke="url(#paint13_linear_2016_1494)" stroke-width="2"/>
<path d="M141 36.5C141 35.9477 141.448 35.5 142 35.5H148C148.552 35.5 149 35.9477 149 36.5V58.5C149 59.0523 148.552 59.5 148 59.5H142C141.448 59.5 141 59.0523 141 58.5V36.5Z" fill="url(#paint14_linear_2016_1494)"/>
<path d="M145 59.5L145 78.5M145 35.5L145 7.5M142 59.5H148C148.552 59.5 149 59.0523 149 58.5V36.5C149 35.9477 148.552 35.5 148 35.5H142C141.448 35.5 141 35.9477 141 36.5V58.5C141 59.0523 141.448 59.5 142 59.5Z" stroke="url(#paint15_linear_2016_1494)" stroke-width="2"/>
<path d="M161 36.5C161 35.9477 161.448 35.5 162 35.5H168C168.552 35.5 169 35.9477 169 36.5V106.5C169 107.052 168.552 107.5 168 107.5H162C161.448 107.5 161 107.052 161 106.5V36.5Z" fill="url(#paint16_linear_2016_1494)"/>
<path d="M165 107.5L165 158.5M165 35.5L165 7.5M162 107.5H168C168.552 107.5 169 107.052 169 106.5V36.5C169 35.9477 168.552 35.5 168 35.5H162C161.448 35.5 161 35.9477 161 36.5V106.5C161 107.052 161.448 107.5 162 107.5Z" stroke="url(#paint17_linear_2016_1494)" stroke-width="2"/>
<path d="M181 52.5C181 51.9477 181.448 51.5 182 51.5H188C188.552 51.5 189 51.9477 189 52.5V98.5C189 99.0523 188.552 99.5 188 99.5H182C181.448 99.5 181 99.0523 181 98.5V52.5Z" fill="url(#paint18_linear_2016_1494)"/>
<path d="M185 99.5L185 118.5M185 51.5L185 39.5M182 99.5H188C188.552 99.5 189 99.0523 189 98.5V52.5C189 51.9477 188.552 51.5 188 51.5H182C181.448 51.5 181 51.9477 181 52.5V98.5C181 99.0523 181.448 99.5 182 99.5Z" stroke="url(#paint19_linear_2016_1494)" stroke-width="2"/>
<path d="M201 44.5C201 43.9477 201.448 43.5 202 43.5H208C208.552 43.5 209 43.9477 209 44.5V82.5C209 83.0523 208.552 83.5 208 83.5H202C201.448 83.5 201 83.0523 201 82.5V44.5Z" fill="url(#paint20_linear_2016_1494)"/>
<path d="M205 83.5L205 94.5M205 43.5L205 31.5M202 83.5H208C208.552 83.5 209 83.0523 209 82.5V44.5C209 43.9477 208.552 43.5 208 43.5H202C201.448 43.5 201 43.9477 201 44.5V82.5C201 83.0523 201.448 83.5 202 83.5Z" stroke="url(#paint21_linear_2016_1494)" stroke-width="2"/>
<defs>
<linearGradient id="paint0_linear_2016_1494" x1="5" y1="33.5" x2="5.00002" y2="112.5" gradientUnits="userSpaceOnUse">
<stop stop-color="#69F3DE"/>
<stop offset="1" stop-color="#DEA6F8"/>
</linearGradient>
<linearGradient id="paint1_linear_2016_1494" x1="5" y1="33.5" x2="5.00002" y2="112.5" gradientUnits="userSpaceOnUse">
<stop stop-color="#69F3DE"/>
<stop offset="1" stop-color="#DEA6F8"/>
</linearGradient>
<linearGradient id="paint2_linear_2016_1494" x1="25" y1="23.5" x2="25" y2="120.5" gradientUnits="userSpaceOnUse">
<stop stop-color="#69F3DE"/>
<stop offset="1" stop-color="#DEA6F8"/>
</linearGradient>
<linearGradient id="paint3_linear_2016_1494" x1="25" y1="23.5" x2="25" y2="120.5" gradientUnits="userSpaceOnUse">
<stop stop-color="#69F3DE"/>
<stop offset="1" stop-color="#DEA6F8"/>
</linearGradient>
<linearGradient id="paint4_linear_2016_1494" x1="45" y1="0.5" x2="45" y2="79.5" gradientUnits="userSpaceOnUse">
<stop stop-color="#69F3DE"/>
<stop offset="1" stop-color="#DEA6F8"/>
</linearGradient>
<linearGradient id="paint5_linear_2016_1494" x1="45" y1="0.5" x2="45" y2="79.5" gradientUnits="userSpaceOnUse">
<stop stop-color="#69F3DE"/>
<stop offset="1" stop-color="#DEA6F8"/>
</linearGradient>
<linearGradient id="paint6_linear_2016_1494" x1="65" y1="9.5" x2="65" y2="104.5" gradientUnits="userSpaceOnUse">
<stop stop-color="#69F3DE"/>
<stop offset="1" stop-color="#DEA6F8"/>
</linearGradient>
<linearGradient id="paint7_linear_2016_1494" x1="65" y1="9.5" x2="65" y2="104.5" gradientUnits="userSpaceOnUse">
<stop stop-color="#69F3DE"/>
<stop offset="1" stop-color="#DEA6F8"/>
</linearGradient>
<linearGradient id="paint8_linear_2016_1494" x1="85" y1="0.5" x2="85" y2="79.5" gradientUnits="userSpaceOnUse">
<stop stop-color="#69F3DE"/>
<stop offset="1" stop-color="#DEA6F8"/>
</linearGradient>
<linearGradient id="paint9_linear_2016_1494" x1="85" y1="0.5" x2="85" y2="79.5" gradientUnits="userSpaceOnUse">
<stop stop-color="#69F3DE"/>
<stop offset="1" stop-color="#DEA6F8"/>
</linearGradient>
<linearGradient id="paint10_linear_2016_1494" x1="105" y1="33.5" x2="105" y2="120.5" gradientUnits="userSpaceOnUse">
<stop stop-color="#69F3DE"/>
<stop offset="1" stop-color="#DEA6F8"/>
</linearGradient>
<linearGradient id="paint11_linear_2016_1494" x1="105" y1="33.5" x2="105" y2="120.5" gradientUnits="userSpaceOnUse">
<stop stop-color="#69F3DE"/>
<stop offset="1" stop-color="#DEA6F8"/>
</linearGradient>
<linearGradient id="paint12_linear_2016_1494" x1="125" y1="15.5" x2="125" y2="94.5" gradientUnits="userSpaceOnUse">
<stop stop-color="#69F3DE"/>
<stop offset="1" stop-color="#DEA6F8"/>
</linearGradient>
<linearGradient id="paint13_linear_2016_1494" x1="125" y1="15.5" x2="125" y2="94.5" gradientUnits="userSpaceOnUse">
<stop stop-color="#69F3DE"/>
<stop offset="1" stop-color="#DEA6F8"/>
</linearGradient>
<linearGradient id="paint14_linear_2016_1494" x1="145" y1="7.5" x2="145" y2="78.5" gradientUnits="userSpaceOnUse">
<stop stop-color="#69F3DE"/>
<stop offset="1" stop-color="#DEA6F8"/>
</linearGradient>
<linearGradient id="paint15_linear_2016_1494" x1="145" y1="7.5" x2="145" y2="78.5" gradientUnits="userSpaceOnUse">
<stop stop-color="#69F3DE"/>
<stop offset="1" stop-color="#DEA6F8"/>
</linearGradient>
<linearGradient id="paint16_linear_2016_1494" x1="165" y1="7.5" x2="165" y2="158.5" gradientUnits="userSpaceOnUse">
<stop stop-color="#69F3DE"/>
<stop offset="1" stop-color="#DEA6F8"/>
</linearGradient>
<linearGradient id="paint17_linear_2016_1494" x1="165" y1="7.5" x2="165" y2="158.5" gradientUnits="userSpaceOnUse">
<stop stop-color="#69F3DE"/>
<stop offset="1" stop-color="#DEA6F8"/>
</linearGradient>
<linearGradient id="paint18_linear_2016_1494" x1="185" y1="39.5" x2="185" y2="118.5" gradientUnits="userSpaceOnUse">
<stop stop-color="#69F3DE"/>
<stop offset="1" stop-color="#DEA6F8"/>
</linearGradient>
<linearGradient id="paint19_linear_2016_1494" x1="185" y1="39.5" x2="185" y2="118.5" gradientUnits="userSpaceOnUse">
<stop stop-color="#69F3DE"/>
<stop offset="1" stop-color="#DEA6F8"/>
</linearGradient>
<linearGradient id="paint20_linear_2016_1494" x1="205" y1="31.5" x2="205" y2="94.5" gradientUnits="userSpaceOnUse">
<stop stop-color="#69F3DE"/>
<stop offset="1" stop-color="#DEA6F8"/>
</linearGradient>
<linearGradient id="paint21_linear_2016_1494" x1="205" y1="31.5" x2="205" y2="94.5" gradientUnits="userSpaceOnUse">
<stop stop-color="#69F3DE"/>
<stop offset="1" stop-color="#DEA6F8"/>
</linearGradient>
</defs>
</svg>
