<svg width="274" height="170" viewBox="0 0 274 170" fill="none" xmlns="http://www.w3.org/2000/svg">
<path d="M242.587 21.9207L246.99 23.1004L243.445 36.3297L239.043 35.15M254.688 25.1629L259.09 26.3426L255.546 39.5719L251.143 38.3922M231.556 5.94522L217.608 14.0347L206.957 53.7845L220.135 57.3155L217.178 68.3502L231.157 60.269L239.932 62.6202L265.055 48.05L273.337 17.1404M261.24 44.6757L250.105 51.1337L241.299 48.7742L231.531 54.4391L233.602 46.7117L223.688 44.0553L232.558 10.951L267.75 20.3807L261.24 44.6757Z" fill="white" fill-opacity="0.4"/>
<path d="M35.7652 44.8043L50.5488 30.1944L30.4409 24.9338L35.7652 44.8043ZM67.675 8.46132C68.5291 9.90075 69.3907 11.9061 70.3022 14.5014C71.2475 17.0878 71.9606 19.3459 72.493 21.3329L73.4401 24.0607C75.3835 31.3135 76.2743 36.7895 76.2471 40.4528C76.2054 43.6585 74.7705 46.1017 71.967 47.7403C70.5025 48.5941 67.6916 49.6668 63.3077 51.0544C59 52.4571 55.0265 53.6283 51.329 54.6191L46.0375 56.2499C31.9532 60.0238 23.0379 61.8447 19.3272 61.8451C16.08 61.8278 13.6157 60.4294 11.9767 57.674C11.1227 56.2346 10.2611 54.2292 9.34951 51.6339C8.4043 49.0475 7.69117 46.7894 7.15874 44.8024L6.21166 42.0746C4.2683 34.8218 3.37744 29.3458 3.40464 25.6825C3.44635 22.4768 4.8813 20.0336 7.68473 18.395C9.14924 17.5412 11.9602 16.4685 16.344 15.0809C20.6518 13.6782 24.6252 12.507 28.3228 11.5162L33.6142 9.88543C47.6986 6.11154 56.6139 4.29062 60.3246 4.29019C63.5717 4.30751 66.036 5.70592 67.675 8.46132Z" fill="white" fill-opacity="0.4"/>
<path d="M63 38H224C225.657 38 227 39.3431 227 41V138C227 139.657 225.657 141 224 141H205.385C203.632 141 202.007 141.918 201.102 143.419L188.733 163.942C187.582 165.852 184.824 165.883 183.63 164L170.523 143.323C169.606 141.877 168.012 141 166.3 141H63C61.3431 141 60 139.657 60 138V41C60 39.3431 61.3431 38 63 38Z" fill="url(#paint0_linear_2020_1685)" stroke="#6AF3DE" stroke-width="2"/>
<circle cx="104" cy="89" r="11" fill="black" stroke="#69F4DE" stroke-width="2"/>
<circle cx="144" cy="89" r="11" fill="black" stroke="#69F4DE" stroke-width="2"/>
<circle cx="184" cy="89" r="11" fill="black" stroke="#69F4DE" stroke-width="2"/>
<defs>
<linearGradient id="paint0_linear_2020_1685" x1="143.5" y1="37" x2="143.5" y2="142" gradientUnits="userSpaceOnUse">
<stop stop-color="#69F3DE"/>
<stop offset="1" stop-color="#DEA6F8"/>
</linearGradient>
</defs>
</svg>
