<svg width="140" height="140" viewBox="0 0 140 140" fill="none" xmlns="http://www.w3.org/2000/svg">
<rect x="60.3076" y="14" width="18.3077" height="18.3077" fill="black"/>
<rect x="109.846" y="61.3845" width="18.3077" height="18.3077" fill="black"/>
<rect x="60.3076" y="109.846" width="18.3077" height="18.3077" fill="black"/>
<rect x="12.9229" y="61.3845" width="18.3077" height="18.3077" fill="black"/>
<path d="M4 50H36.8431C37.6388 50 38.4019 50.3161 38.9645 50.8787L55.9645 67.8787C57.136 69.0503 57.136 70.9498 55.9645 72.1213L38.9645 89.1213C38.4019 89.6839 37.6388 90 36.8431 90H4C2.34315 90 1 88.6569 1 87V53C1 51.3431 2.34315 50 4 50ZM18 78H24C26.7614 78 29 75.7614 29 73V67C29 64.2386 26.7614 62 24 62H18C15.2386 62 13 64.2386 13 67V73C13 75.7614 15.2386 78 18 78ZM90 4V36.8431C90 37.6388 89.6839 38.4019 89.1213 38.9645L72.1213 55.9645C70.9498 57.136 69.0503 57.136 67.8787 55.9645L50.8787 38.9645C50.3161 38.4019 50 37.6388 50 36.8431V4C50 2.34315 51.3431 1 53 1H87C88.6569 1 90 2.34315 90 4ZM73 13H67C64.2386 13 62 15.2386 62 18V24C62 26.7614 64.2386 29 67 29H73C75.7614 29 78 26.7614 78 24V18C78 15.2386 75.7614 13 73 13ZM50 136V103.157C50 102.361 50.3161 101.598 50.8787 101.036L67.8787 84.0355C69.0503 82.864 70.9498 82.864 72.1213 84.0355L89.1213 101.036C89.6839 101.598 90 102.361 90 103.157V136C90 137.657 88.6569 139 87 139H53C51.3431 139 50 137.657 50 136ZM67 127H73C75.7614 127 78 124.761 78 122V116C78 113.239 75.7614 111 73 111H67C64.2386 111 62 113.239 62 116V122C62 124.761 64.2386 127 67 127ZM84.0355 67.8787L101.036 50.8787C101.598 50.3161 102.361 50 103.157 50H136C137.657 50 139 51.3431 139 53V87C139 88.6569 137.657 90 136 90H103.157C102.361 90 101.598 89.6839 101.036 89.1213L84.0355 72.1213C82.864 70.9498 82.864 69.0503 84.0355 67.8787ZM116 78H122C124.761 78 127 75.7614 127 73V67C127 64.2386 124.761 62 122 62H116C113.239 62 111 64.2386 111 67V73C111 75.7614 113.239 78 116 78Z" fill="url(#paint0_linear_2020_1617)" stroke="#6AF3DE" stroke-width="2"/>
<defs>
<linearGradient id="paint0_linear_2020_1617" x1="75.0909" y1="-8.61539" x2="75.0909" y2="117.385" gradientUnits="userSpaceOnUse">
<stop stop-color="#69F3DE"/>
<stop offset="1" stop-color="#DEA6F8"/>
</linearGradient>
</defs>
</svg>
