<svg width="174" height="175" viewBox="0 0 174 175" fill="none" xmlns="http://www.w3.org/2000/svg">
<circle cx="87" cy="87.5" r="86" stroke="url(#paint0_linear_2016_1458)" stroke-width="2" stroke-dasharray="8 8"/>
<path d="M160 87.5C160 127.817 127.317 160.5 87 160.5C46.6832 160.5 14 127.817 14 87.5C14 47.1832 46.6832 14.5 87 14.5C127.317 14.5 160 47.1832 160 87.5Z" stroke="url(#paint1_linear_2016_1458)" stroke-width="4"/>
<circle cx="87" cy="87.5" r="27" stroke="url(#paint2_linear_2016_1458)" stroke-width="2"/>
<path d="M87 72.5V101" stroke="url(#paint3_linear_2016_1458)" stroke-width="2"/>
<path d="M101.25 86.75L72.75 86.75" stroke="url(#paint4_linear_2016_1458)" stroke-width="2"/>
<defs>
<linearGradient id="paint0_linear_2016_1458" x1="87" y1="0.5" x2="87" y2="174.5" gradientUnits="userSpaceOnUse">
<stop stop-color="#69F3DE"/>
<stop offset="1" stop-color="#DEA6F8"/>
</linearGradient>
<linearGradient id="paint1_linear_2016_1458" x1="87" y1="12.5" x2="87" y2="162.5" gradientUnits="userSpaceOnUse">
<stop stop-color="#69F3DE"/>
<stop offset="1" stop-color="#DEA6F8"/>
</linearGradient>
<linearGradient id="paint2_linear_2016_1458" x1="87" y1="59.5" x2="87" y2="115.5" gradientUnits="userSpaceOnUse">
<stop stop-color="#69F3DE"/>
<stop offset="1" stop-color="#DEA6F8"/>
</linearGradient>
<linearGradient id="paint3_linear_2016_1458" x1="87.5" y1="72.5" x2="87.5" y2="101" gradientUnits="userSpaceOnUse">
<stop stop-color="#69F3DE"/>
<stop offset="1" stop-color="#DEA6F8"/>
</linearGradient>
<linearGradient id="paint4_linear_2016_1458" x1="101.25" y1="87.25" x2="72.75" y2="87.25" gradientUnits="userSpaceOnUse">
<stop stop-color="#69F3DE"/>
<stop offset="1" stop-color="#DEA6F8"/>
</linearGradient>
</defs>
</svg>
