<svg width="40" height="40" viewBox="0 0 40 40" fill="none" xmlns="http://www.w3.org/2000/svg">
<path d="M31.076 10.9114C29.0493 10.0204 26.855 9.37365 24.5692 9C24.529 9.00054 24.4907 9.01604 24.4625 9.04311C24.1882 9.51737 23.8682 10.1353 23.6549 10.6096C21.2304 10.2649 18.7649 10.2649 16.3404 10.6096C16.1271 10.121 15.8071 9.51737 15.5175 9.04311C15.5023 9.01437 15.4566 9 15.4108 9C13.1251 9.37365 10.946 10.0204 8.904 10.9114C8.88876 10.9114 8.87353 10.9258 8.85829 10.9401C4.71341 16.7892 3.57052 22.4803 4.13435 28.1138C4.13435 28.1425 4.14959 28.1713 4.18006 28.1857C6.923 30.0827 9.55926 31.2324 12.165 31.994C12.2108 32.0084 12.2565 31.994 12.2717 31.9653C12.8813 31.1749 13.4298 30.3413 13.9022 29.4647C13.9327 29.4072 13.9022 29.3497 13.8413 29.3354C12.9727 29.0192 12.1498 28.6455 11.3422 28.2144C11.2812 28.1857 11.2812 28.0994 11.3269 28.0563C11.4946 27.9413 11.6622 27.812 11.8298 27.697C11.8603 27.6683 11.906 27.6683 11.9365 27.6827C17.1785 29.939 22.832 29.939 28.0131 27.6827C28.0436 27.6683 28.0893 27.6683 28.1198 27.697C28.2874 27.8264 28.455 27.9413 28.6226 28.0707C28.6836 28.1138 28.6836 28.2 28.6074 28.2288C27.815 28.6743 26.9769 29.0336 26.1083 29.3497C26.0473 29.3641 26.0321 29.436 26.0473 29.4791C26.535 30.3557 27.0836 31.1893 27.6779 31.9797C27.7236 31.994 27.7693 32.0084 27.815 31.994C30.436 31.2324 33.0723 30.0827 35.8152 28.1857C35.8457 28.1713 35.8609 28.1425 35.8609 28.1138C36.5314 21.6036 34.7485 15.9557 31.137 10.9401C31.1218 10.9258 31.1065 10.9114 31.076 10.9114ZM14.6946 24.6791C13.1251 24.6791 11.8146 23.3138 11.8146 21.6324C11.8146 19.9509 13.0946 18.5856 14.6946 18.5856C16.3099 18.5856 17.59 19.9653 17.5747 21.6324C17.5747 23.3138 16.2947 24.6791 14.6946 24.6791ZM25.3159 24.6791C23.7463 24.6791 22.4358 23.3138 22.4358 21.6324C22.4358 19.9509 23.7158 18.5856 25.3159 18.5856C26.9312 18.5856 28.2112 19.9653 28.196 21.6324C28.196 23.3138 26.9312 24.6791 25.3159 24.6791Z" fill="white"/>
</svg>
