<svg width="100%" height="100%" viewBox="0 0 24 24" fill="none" xmlns="http://www.w3.org/2000/svg">
<path d="M18.2303 6.16345C17.0902 5.62109 15.8559 5.22744 14.5702 5C14.5476 5.00033 14.526 5.00976 14.5102 5.02624C14.3559 5.31492 14.1759 5.69107 14.0559 5.97975C12.6921 5.76993 11.3052 5.76993 9.94147 5.97975C9.82147 5.68232 9.64147 5.31492 9.4786 5.02624C9.47003 5.00875 9.44432 5 9.4186 5C8.13285 5.22744 6.9071 5.62109 5.7585 6.16345C5.74993 6.16345 5.74136 6.1722 5.73279 6.18094C3.40129 9.74127 2.75842 13.2054 3.07557 16.6345C3.07557 16.652 3.08414 16.6695 3.10129 16.6782C4.64419 17.8329 6.12708 18.5327 7.59284 18.9964C7.61855 19.0051 7.64427 18.9964 7.65284 18.9789C7.99571 18.4978 8.30429 17.9904 8.57001 17.4568C8.58715 17.4218 8.57001 17.3868 8.53572 17.378C8.04714 17.1856 7.58427 16.9582 7.12997 16.6957C7.09568 16.6782 7.09568 16.6257 7.1214 16.5995C7.21568 16.5295 7.30997 16.4508 7.40426 16.3808C7.4214 16.3633 7.44712 16.3633 7.46426 16.3721C10.4129 17.7455 13.593 17.7455 16.5074 16.3721C16.5245 16.3633 16.5502 16.3633 16.5674 16.3808C16.6617 16.4595 16.7559 16.5295 16.8502 16.6082C16.8845 16.6345 16.8845 16.687 16.8417 16.7045C16.3959 16.9756 15.9245 17.1943 15.4359 17.3868C15.4016 17.3955 15.3931 17.4393 15.4016 17.4655C15.6759 17.9991 15.9845 18.5065 16.3188 18.9876C16.3445 18.9964 16.3702 19.0051 16.3959 18.9964C17.8703 18.5327 19.3532 17.8329 20.8961 16.6782C20.9132 16.6695 20.9218 16.652 20.9218 16.6345C21.2989 12.6718 20.296 9.2339 18.2646 6.18094C18.256 6.1722 18.2474 6.16345 18.2303 6.16345ZM9.01573 14.5438C8.13285 14.5438 7.39569 13.7127 7.39569 12.6893C7.39569 11.6658 8.11571 10.8347 9.01573 10.8347C9.92433 10.8347 10.6444 11.6745 10.6358 12.6893C10.6358 13.7127 9.91576 14.5438 9.01573 14.5438ZM14.9902 14.5438C14.1073 14.5438 13.3701 13.7127 13.3701 12.6893C13.3701 11.6658 14.0902 10.8347 14.9902 10.8347C15.8988 10.8347 16.6188 11.6745 16.6102 12.6893C16.6102 13.7127 15.8988 14.5438 14.9902 14.5438Z" fill="#fff"></path>
</svg>