<svg width="64" height="64" viewBox="0 0 64 64" fill="none" xmlns="http://www.w3.org/2000/svg">
<mask id="mask0_179_224" style="mask-type:luminance" maskUnits="userSpaceOnUse" x="0" y="0" width="64" height="64">
<path d="M0 0H64V64H0V0Z" fill="white"/>
</mask>
<g mask="url(#mask0_179_224)">
<g opacity="0.75">
<path d="M32 3C48.016 3 61 15.984 61 32C61 48.016 48.016 61 32 61C15.984 61 3 48.016 3 32C3 15.984 15.984 3 32 3Z" fill="white"/>
<path d="M32 4C47.464 4 60 16.536 60 32C60 47.464 47.464 60 32 60C16.536 60 4 47.464 4 32C4 16.536 16.536 4 32 4Z" stroke="#7F7F7F" stroke-width="2"/>
<path d="M32 3C48.016 3 61 15.984 61 32C61 48.016 48.016 61 32 61C15.984 61 3 48.016 3 32C3 15.984 15.984 3 32 3Z" fill="white"/>
<path d="M32 3.5C47.74 3.5 60.5 16.26 60.5 32C60.5 47.74 47.74 60.5 32 60.5C16.26 60.5 3.5 47.74 3.5 32C3.5 16.26 16.26 3.5 32 3.5Z" stroke="white"/>
<path d="M32 1C49.121 1 63 14.879 63 32C63 49.121 49.121 63 32 63C14.879 63 1 49.121 1 32C1 14.879 14.879 1 32 1Z" stroke="white" stroke-opacity="0.2" stroke-width="2"/>
<path d="M44.001 18C44.786 18 45.542 18.296 46.117 18.83C46.693 19.364 47.045 20.095 47.104 20.878L47.111 21.111V42.889C47.111 43.674 46.815 44.43 46.281 45.005C45.747 45.581 45.017 45.933 44.234 45.992L44.001 46H19.111C18.326 46 17.57 45.704 16.995 45.17C16.419 44.636 16.067 43.905 16.008 43.122L16.001 42.889V21.111C16.001 20.326 16.297 19.57 16.831 18.995C17.365 18.419 18.095 18.067 18.878 18.008L19.111 18H44.001ZM44.001 39.778H40.889V42.889H44.001V39.778ZM22.223 39.778H19.111V42.889H22.223V39.778ZM44.001 33.556H40.889V36.667H44.001V33.556ZM22.223 33.556H19.111V36.667H22.223V33.556ZM44.001 27.333H40.889V30.444H44.001V27.333ZM22.223 27.333H19.111V30.444H22.223V27.333ZM44.001 21.111H40.889V24.222H44.001V21.111ZM22.223 21.111H19.111V24.222H22.223V21.111Z" fill="url(#paint0_linear_179_224)"/>
</g>
</g>
<defs>
<linearGradient id="paint0_linear_179_224" x1="31.556" y1="46.28" x2="31.454" y2="18.318" gradientUnits="userSpaceOnUse">
<stop stop-color="#938C9F"/>
<stop offset="0.5" stop-color="#574B6B"/>
<stop offset="1" stop-color="#1B0A37"/>
</linearGradient>
</defs>
</svg>
