<svg width="64" height="64" viewBox="0 0 64 64" fill="none" xmlns="http://www.w3.org/2000/svg">
<mask id="mask0_180_262" style="mask-type:luminance" maskUnits="userSpaceOnUse" x="0" y="0" width="64" height="64">
<path d="M0 0H64V64H0V0Z" fill="white"/>
</mask>
<g mask="url(#mask0_180_262)">
<g opacity="0.25">
<path d="M32 3C48.016 3 61 15.984 61 32C61 48.016 48.016 61 32 61C15.984 61 3 48.016 3 32C3 15.984 15.984 3 32 3Z" fill="white"/>
<path d="M32 4C47.464 4 60 16.536 60 32C60 47.464 47.464 60 32 60C16.536 60 4 47.464 4 32C4 16.536 16.536 4 32 4Z" stroke="#7F7F7F" stroke-width="2"/>
<path d="M32 3C48.016 3 61 15.984 61 32C61 48.016 48.016 61 32 61C15.984 61 3 48.016 3 32C3 15.984 15.984 3 32 3Z" fill="white"/>
<path d="M32 3.5C47.74 3.5 60.5 16.26 60.5 32C60.5 47.74 47.74 60.5 32 60.5C16.26 60.5 3.5 47.74 3.5 32C3.5 16.26 16.26 3.5 32 3.5Z" stroke="white"/>
<path d="M32 1C49.121 1 63 14.879 63 32C63 49.121 49.121 63 32 63C14.879 63 1 49.121 1 32C1 14.879 14.879 1 32 1Z" stroke="white" stroke-opacity="0.2" stroke-width="2"/>
<path d="M22.425 26.665C22.312 25.886 22.07 24.959 21.78 23.852L20.915 20.531L20.899 20.472C22.042 19.371 23.343 18.446 24.758 17.728L27.374 19.708C28.272 20.387 29.025 20.958 29.694 21.351C30.043 21.559 30.394 21.732 30.761 21.857V26.692C30.565 26.784 30.377 26.899 30.199 27.037L27.102 29.468C26.988 29.558 26.881 29.656 26.781 29.76L22.487 27.903C22.509 27.489 22.489 27.074 22.425 26.665ZM19.268 29.124C18.796 29.53 18.13 29.983 17.129 30.661L16 31.428C16.108 28.28 17.148 25.234 18.99 22.676L19.438 24.393C19.748 25.582 19.953 26.377 20.044 27.009C20.132 27.61 20.096 27.94 19.996 28.205C19.9 28.469 19.717 28.738 19.268 29.124ZM21.282 39.814C22.396 39.814 23.333 39.814 24.101 39.904C24.505 39.952 24.891 40.027 25.26 40.15L27.528 37.187C27.446 37.025 27.378 36.855 27.325 36.681L26.105 32.639C26.047 32.441 26.009 32.237 25.991 32.032L21.62 30.144C21.384 30.434 21.122 30.701 20.836 30.941C20.246 31.448 19.464 31.978 18.534 32.61L16.143 34.231C16.415 36.193 17.054 38.087 18.026 39.814H21.282ZM31.686 28.924C31.765 28.86 31.863 28.825 31.965 28.825C32.062 28.825 32.156 28.858 32.245 28.924L35.342 31.352C35.428 31.418 35.487 31.507 35.52 31.618C35.553 31.726 35.553 31.841 35.52 31.949L34.305 35.99C34.276 36.093 34.215 36.185 34.132 36.253C34.052 36.319 33.951 36.355 33.847 36.355H30.085C29.98 36.355 29.88 36.318 29.799 36.251C29.717 36.184 29.656 36.093 29.626 35.99L28.41 31.949C28.377 31.841 28.377 31.726 28.41 31.618C28.441 31.513 28.503 31.42 28.589 31.352L31.686 28.924ZM34.225 21.401C34.901 21.022 35.668 20.467 36.578 19.809L39.367 17.79C40.748 18.506 42.017 19.419 43.134 20.5L42.259 23.852C41.97 24.959 41.728 25.886 41.614 26.665C41.55 27.072 41.529 27.485 41.55 27.897L37.154 29.764C37.052 29.657 36.943 29.558 36.828 29.466L33.731 27.036C33.557 26.899 33.368 26.784 33.167 26.69V21.875C33.529 21.759 33.879 21.595 34.225 21.401ZM30.918 19.284C30.385 18.969 29.74 18.485 28.775 17.753L27.36 16.681C28.866 16.228 30.43 15.998 32.003 16C33.658 16 35.254 16.251 36.756 16.717L35.224 17.825C34.243 18.534 33.589 19.006 33.048 19.308C32.536 19.596 32.236 19.667 31.981 19.664C31.726 19.66 31.428 19.584 30.92 19.284M43.201 30.943C43.791 31.448 44.573 31.979 45.503 32.61L47.859 34.207C47.589 36.177 46.95 38.08 45.974 39.814H42.996C41.882 39.814 40.944 39.814 40.177 39.904C39.767 39.947 39.363 40.035 38.973 40.166L36.424 37.142C36.497 36.994 36.558 36.84 36.607 36.681L37.825 32.639C37.884 32.44 37.921 32.24 37.937 32.039L42.413 30.138C42.643 30.424 42.906 30.692 43.201 30.941M36.52 42.601C36.198 43.315 35.902 44.223 35.549 45.311L34.754 47.762C33.03 48.062 31.269 48.078 29.54 47.81L28.729 45.311C28.376 44.223 28.08 43.315 27.757 42.599C27.598 42.245 27.407 41.905 27.187 41.585L29.415 38.675C29.632 38.728 29.855 38.755 30.085 38.755H33.847C34.093 38.755 34.331 38.724 34.563 38.664L37.062 41.627C36.854 41.935 36.672 42.26 36.52 42.599M26.462 46.114C26.082 44.946 25.827 44.166 25.565 43.59C25.316 43.038 25.111 42.79 24.895 42.63C24.683 42.473 24.398 42.355 23.821 42.287C23.21 42.215 22.413 42.214 21.213 42.214H19.679C21.553 44.473 24.014 46.174 26.792 47.132L26.462 46.114ZM40.457 42.287C41.068 42.215 41.864 42.214 43.065 42.214H44.323C42.52 44.387 40.174 46.045 37.522 47.021L37.816 46.114C38.195 44.946 38.45 44.166 38.713 43.59C38.962 43.038 39.167 42.79 39.383 42.63C39.595 42.473 39.88 42.355 40.457 42.287ZM43.993 27.007C44.086 26.378 44.293 25.582 44.602 24.393L45.04 22.713C46.859 25.256 47.888 28.277 48 31.4L46.91 30.663C45.908 29.983 45.243 29.53 44.77 29.124C44.322 28.738 44.141 28.469 44.043 28.207C43.943 27.94 43.906 27.61 43.995 27.007" fill="url(#paint0_linear_180_262)"/>
</g>
</g>
<defs>
<linearGradient id="paint0_linear_180_262" x1="32" y1="48.032" x2="32.118" y2="16.204" gradientUnits="userSpaceOnUse">
<stop stop-color="#938C9F"/>
<stop offset="0.5" stop-color="#574B6B"/>
<stop offset="1" stop-color="#1B0A37"/>
</linearGradient>
</defs>
</svg>
