<svg width="64" height="64" viewBox="0 0 64 64" fill="none" xmlns="http://www.w3.org/2000/svg">
<mask id="mask0_181_281" style="mask-type:luminance" maskUnits="userSpaceOnUse" x="0" y="0" width="64" height="64">
<path d="M0 0H64V64H0V0Z" fill="white"/>
</mask>
<g mask="url(#mask0_181_281)">
<g opacity="0.5">
<path d="M32 3C48.016 3 61 15.984 61 32C61 48.016 48.016 61 32 61C15.984 61 3 48.016 3 32C3 15.984 15.984 3 32 3Z" fill="white"/>
<path d="M32 4C47.464 4 60 16.536 60 32C60 47.464 47.464 60 32 60C16.536 60 4 47.464 4 32C4 16.536 16.536 4 32 4Z" stroke="#7F7F7F" stroke-width="2"/>
<path d="M32 3C48.016 3 61 15.984 61 32C61 48.016 48.016 61 32 61C15.984 61 3 48.016 3 32C3 15.984 15.984 3 32 3Z" fill="white"/>
<path d="M32 3.5C47.74 3.5 60.5 16.26 60.5 32C60.5 47.74 47.74 60.5 32 60.5C16.26 60.5 3.5 47.74 3.5 32C3.5 16.26 16.26 3.5 32 3.5Z" stroke="white"/>
<path d="M32 1C49.121 1 63 14.879 63 32C63 49.121 49.121 63 32 63C14.879 63 1 49.121 1 32C1 14.879 14.879 1 32 1Z" stroke="white" stroke-opacity="0.2" stroke-width="2"/>
<path d="M45.3162 41.689C43.8902 42.365 41.9892 41.914 41.0382 40.561L38.4242 37.402H25.5902L22.9762 40.561C21.7882 42.14 19.6492 42.365 17.9852 41.237C16.7972 40.335 16.3222 38.981 16.5592 37.853L18.2232 29.506C18.6982 26.798 21.3122 24.768 24.1642 24.768H30.8192V21.384C30.8192 19.579 32.2452 18 34.1462 18H41.5142C42.2272 18 42.7022 18.451 42.7022 19.128C42.7022 19.804 42.2272 20.256 41.5142 20.256H34.3842C33.6712 20.256 33.1952 20.707 33.1952 21.158V24.768H39.8502C42.7022 24.768 45.3162 26.798 45.7922 29.506L47.4552 37.853C47.6932 39.432 46.9802 41.012 45.3162 41.689ZM28.4422 30.408C28.4422 28.603 26.7792 27.024 24.8772 27.024C22.9762 27.024 21.3122 28.603 21.3122 30.408C21.3122 32.213 22.9762 33.792 24.8772 33.792C26.7792 33.792 28.4422 32.213 28.4422 30.408ZM42.7022 30.408C42.7022 29.731 42.2272 29.28 41.5142 29.28H40.3252V28.152C40.3252 27.475 39.8502 27.024 39.1372 27.024C38.4242 27.024 37.9492 27.475 37.9492 28.152V29.28H36.7612C36.0482 29.28 35.5722 29.731 35.5722 30.408C35.5722 31.085 36.0482 31.536 36.7612 31.536H37.9492V32.664C37.9492 33.341 38.4242 33.792 39.1372 33.792C39.8502 33.792 40.3252 33.341 40.3252 32.664V31.536H41.5142C42.2272 31.536 42.7022 31.085 42.7022 30.408Z" fill="url(#paint0_linear_181_281)"/>
</g>
</g>
<defs>
<linearGradient id="paint0_linear_181_281" x1="32.1932" y1="42.119" x2="31.9662" y2="18.08" gradientUnits="userSpaceOnUse">
<stop stop-color="#938C9F"/>
<stop offset="0.5" stop-color="#574B6B"/>
<stop offset="1" stop-color="#1B0A37"/>
</linearGradient>
</defs>
</svg>
