<svg width="774" height="890" viewBox="0 0 774 890" fill="none" xmlns="http://www.w3.org/2000/svg">
<g filter="url(#filter0_f_2004_3086)">
<path d="M104.748 383.2C105.829 383.2 106.893 382.925 107.838 382.4L197.04 332.818C198.035 332.266 198.864 331.457 199.441 330.476C200.018 329.495 200.322 328.377 200.321 327.239V228.478C200.32 227.341 200.015 226.225 199.438 225.246M104.748 383.2C103.667 383.2 102.603 382.925 101.658 382.4L12.4562 332.818C11.4613 332.266 10.6323 331.457 10.0553 330.476C9.47828 329.495 9.17425 328.377 9.17481 327.239V228.478C9.17615 227.341 9.48107 226.225 10.058 225.246M104.748 383.2L104.748 277.859M10.058 225.246C10.6349 224.267 11.4629 223.461 12.4562 222.909L101.658 173.316C102.603 172.791 103.667 172.516 104.748 172.516C105.829 172.516 106.893 172.791 107.838 173.316L197.04 222.909C198.033 223.461 198.861 224.267 199.438 225.246M10.058 225.246L101.647 276.138C102.594 276.665 103.66 276.941 104.743 276.941C105.826 276.941 106.892 276.665 107.838 276.138C141.882 257.215 165.395 244.17 199.438 225.246" stroke="white" stroke-opacity="0.25" stroke-width="2" stroke-linecap="round" stroke-linejoin="round"/>
<path d="M104.748 383.2C105.829 383.2 106.893 382.925 107.838 382.4L197.04 332.818C198.035 332.266 198.864 331.457 199.441 330.476C200.018 329.495 200.322 328.377 200.321 327.239V228.478C200.32 227.341 200.015 226.225 199.438 225.246M104.748 383.2C103.667 383.2 102.603 382.925 101.658 382.4L12.4562 332.818C11.4613 332.266 10.6323 331.457 10.0553 330.476C9.47828 329.495 9.17425 328.377 9.17481 327.239V228.478C9.17615 227.341 9.48107 226.225 10.058 225.246M104.748 383.2L104.748 277.859M10.058 225.246C10.6349 224.267 11.4629 223.461 12.4562 222.909L101.658 173.316C102.603 172.791 103.667 172.516 104.748 172.516C105.829 172.516 106.893 172.791 107.838 173.316L197.04 222.909C198.033 223.461 198.861 224.267 199.438 225.246M10.058 225.246L101.647 276.138C102.594 276.665 103.66 276.941 104.743 276.941C105.826 276.941 106.892 276.665 107.838 276.138C141.882 257.215 165.395 244.17 199.438 225.246" stroke="url(#paint0_linear_2004_3086)" stroke-width="2" stroke-linecap="round" stroke-linejoin="round"/>
</g>
<path d="M200.321 228.478V327.239C200.322 328.377 200.018 329.495 199.441 330.476C198.864 331.457 198.035 332.266 197.04 332.818L107.838 382.4C106.893 382.925 105.829 383.2 104.748 383.2C103.667 383.2 102.603 382.925 101.658 382.4L12.4562 332.818C11.4613 332.266 10.6323 331.457 10.0553 330.476C9.47828 329.495 9.17425 328.377 9.17481 327.239V228.478C9.17615 227.341 9.48107 226.225 10.058 225.246C10.6349 224.267 11.4629 223.461 12.4562 222.909L101.658 173.316C102.603 172.791 103.667 172.516 104.748 172.516C105.829 172.516 106.893 172.791 107.838 173.316L197.04 222.909C198.033 223.461 198.861 224.267 199.438 225.246C200.015 226.225 200.32 227.341 200.321 228.478Z" fill="#1C0043"/>
<path d="M10.058 225.246L101.647 276.138C102.594 276.665 103.66 276.941 104.743 276.941C105.826 276.941 106.892 276.665 107.838 276.138C141.882 257.215 165.395 244.17 199.438 225.246M104.748 383.2L104.748 277.859L104.748 383.2Z" fill="#1C0043"/>
<path d="M104.748 383.2C105.829 383.2 106.893 382.925 107.838 382.4L197.04 332.818C198.035 332.266 198.864 331.457 199.441 330.476C200.018 329.495 200.322 328.377 200.321 327.239V228.478C200.32 227.341 200.015 226.225 199.438 225.246M104.748 383.2C103.667 383.2 102.603 382.925 101.658 382.4L12.4562 332.818C11.4613 332.266 10.6323 331.457 10.0553 330.476C9.47828 329.495 9.17425 328.377 9.17481 327.239V228.478C9.17615 227.341 9.48107 226.225 10.058 225.246M104.748 383.2L104.748 277.859M10.058 225.246C10.6349 224.267 11.4629 223.461 12.4562 222.909L101.658 173.316C102.603 172.791 103.667 172.516 104.748 172.516C105.829 172.516 106.893 172.791 107.838 173.316L197.04 222.909C198.033 223.461 198.861 224.267 199.438 225.246M10.058 225.246L101.647 276.138C102.594 276.665 103.66 276.941 104.743 276.941C105.826 276.941 106.892 276.665 107.838 276.138C141.882 257.215 165.395 244.17 199.438 225.246" stroke="white" stroke-opacity="0.25" stroke-width="2" stroke-linecap="round" stroke-linejoin="round"/>
<path d="M104.748 383.2C105.829 383.2 106.893 382.925 107.838 382.4L197.04 332.818C198.035 332.266 198.864 331.457 199.441 330.476C200.018 329.495 200.322 328.377 200.321 327.239V228.478C200.32 227.341 200.015 226.225 199.438 225.246M104.748 383.2C103.667 383.2 102.603 382.925 101.658 382.4L12.4562 332.818C11.4613 332.266 10.6323 331.457 10.0553 330.476C9.47828 329.495 9.17425 328.377 9.17481 327.239V228.478C9.17615 227.341 9.48107 226.225 10.058 225.246M104.748 383.2L104.748 277.859M10.058 225.246C10.6349 224.267 11.4629 223.461 12.4562 222.909L101.658 173.316C102.603 172.791 103.667 172.516 104.748 172.516C105.829 172.516 106.893 172.791 107.838 173.316L197.04 222.909C198.033 223.461 198.861 224.267 199.438 225.246M10.058 225.246L101.647 276.138C102.594 276.665 103.66 276.941 104.743 276.941C105.826 276.941 106.892 276.665 107.838 276.138C141.882 257.215 165.395 244.17 199.438 225.246" stroke="url(#paint1_linear_2004_3086)" stroke-width="2" stroke-linecap="round" stroke-linejoin="round"/>
<path d="M200.263 228V326.762C200.263 327.9 199.959 329.018 199.382 329.999C198.805 330.98 197.976 331.788 196.981 332.341L107.78 381.923C106.834 382.448 105.771 382.723 104.689 382.723C103.608 382.723 102.545 382.448 101.599 381.923L12.3976 332.341C11.4027 331.788 10.5737 330.98 9.99671 329.999C9.41968 329.018 9.11566 327.9 9.11621 326.762V228C9.11755 226.864 9.42248 225.748 9.9994 224.769C10.5763 223.79 11.4043 222.984 12.3976 222.432L101.599 172.839C102.545 172.314 103.608 172.039 104.689 172.039C105.771 172.039 106.834 172.314 107.78 172.839L196.981 222.432C197.975 222.984 198.803 223.79 199.38 224.769C199.956 225.748 200.261 226.864 200.263 228Z" fill="#1C0043"/>
<path d="M9.9994 224.769L101.589 275.662C102.536 276.188 103.601 276.465 104.684 276.465C105.768 276.465 106.833 276.188 107.78 275.662L199.38 224.769M104.689 382.723L104.69 277.383L104.689 382.723Z" fill="#1C0043"/>
<path d="M104.689 382.723C105.771 382.723 106.834 382.448 107.78 381.923L196.981 332.341C197.976 331.788 198.805 330.98 199.382 329.999C199.959 329.018 200.263 327.9 200.263 326.762V228C200.261 226.864 199.956 225.748 199.38 224.769M104.689 382.723C103.608 382.723 102.545 382.448 101.599 381.923L12.3976 332.341C11.4027 331.788 10.5737 330.98 9.99671 329.999C9.41968 329.018 9.11566 327.9 9.11621 326.762V228C9.11755 226.864 9.42248 225.748 9.9994 224.769M104.689 382.723L104.69 277.383M9.9994 224.769C10.5763 223.79 11.4043 222.984 12.3976 222.432L101.599 172.839C102.545 172.314 103.608 172.039 104.689 172.039C105.771 172.039 106.834 172.314 107.78 172.839L196.981 222.432C197.975 222.984 198.803 223.79 199.38 224.769M9.9994 224.769L101.589 275.662C102.536 276.188 103.601 276.465 104.684 276.465C105.768 276.465 106.833 276.188 107.78 275.662L199.38 224.769" stroke="url(#paint2_linear_2004_3086)" stroke-width="2" stroke-linecap="round" stroke-linejoin="round"/>
<g style="mix-blend-mode:overlay" filter="url(#filter1_f_2004_3086)">
<circle cx="105" cy="277" r="50" fill="white"/>
</g>
<g filter="url(#filter2_f_2004_3086)">
<path d="M386.689 220.615C387.771 220.615 388.834 220.339 389.78 219.815L478.981 170.232C479.976 169.68 480.805 168.872 481.382 167.89C481.959 166.909 482.263 165.792 482.263 164.653V65.8921C482.261 64.7555 481.956 63.64 481.38 62.661M386.689 220.615C385.608 220.615 384.545 220.339 383.599 219.815L294.398 170.232C293.403 169.68 292.574 168.872 291.997 167.89C291.42 166.909 291.116 165.792 291.116 164.653V65.8921C291.118 64.7555 291.422 63.64 291.999 62.661M386.689 220.615L386.69 115.275M291.999 62.661C292.576 61.682 293.404 60.8751 294.398 60.3239L383.599 10.7307C384.545 10.206 385.608 9.93066 386.689 9.93066C387.771 9.93066 388.834 10.206 389.78 10.7307L478.981 60.3239C479.975 60.8751 480.803 61.682 481.38 62.661M291.999 62.661L383.589 113.553C384.536 114.08 385.601 114.356 386.684 114.356C387.768 114.356 388.833 114.08 389.78 113.553L481.38 62.661" stroke="url(#paint3_linear_2004_3086)" stroke-width="2" stroke-linecap="round" stroke-linejoin="round"/>
</g>
<path d="M482.263 65.8921V164.653C482.263 165.792 481.959 166.909 481.382 167.89C480.805 168.872 479.976 169.68 478.981 170.232L389.78 219.815C388.834 220.339 387.771 220.615 386.689 220.615C385.608 220.615 384.545 220.339 383.599 219.815L294.398 170.232C293.403 169.68 292.574 168.872 291.997 167.89C291.42 166.909 291.116 165.792 291.116 164.653V65.8921C291.118 64.7555 291.422 63.64 291.999 62.661C292.576 61.682 293.404 60.8751 294.398 60.3239L383.599 10.7307C384.545 10.206 385.608 9.93066 386.689 9.93066C387.771 9.93066 388.834 10.206 389.78 10.7307L478.981 60.3239C479.975 60.8751 480.803 61.682 481.38 62.661C481.956 63.64 482.261 64.7555 482.263 65.8921Z" fill="#1C0043"/>
<path d="M291.999 62.661L383.589 113.553C384.536 114.08 385.601 114.356 386.684 114.356C387.768 114.356 388.833 114.08 389.78 113.553L481.38 62.661M386.689 220.615L386.69 115.275L386.689 220.615Z" fill="#1C0043"/>
<path d="M386.689 220.615C387.771 220.615 388.834 220.339 389.78 219.815L478.981 170.232C479.976 169.68 480.805 168.872 481.382 167.89C481.959 166.909 482.263 165.792 482.263 164.653V65.8921C482.261 64.7555 481.956 63.64 481.38 62.661M386.689 220.615C385.608 220.615 384.545 220.339 383.599 219.815L294.398 170.232C293.403 169.68 292.574 168.872 291.997 167.89C291.42 166.909 291.116 165.792 291.116 164.653V65.8921C291.118 64.7555 291.422 63.64 291.999 62.661M386.689 220.615L386.69 115.275M291.999 62.661C292.576 61.682 293.404 60.8751 294.398 60.3239L383.599 10.7307C384.545 10.206 385.608 9.93066 386.689 9.93066C387.771 9.93066 388.834 10.206 389.78 10.7307L478.981 60.3239C479.975 60.8751 480.803 61.682 481.38 62.661M291.999 62.661L383.589 113.553C384.536 114.08 385.601 114.356 386.684 114.356C387.768 114.356 388.833 114.08 389.78 113.553L481.38 62.661" stroke="url(#paint4_linear_2004_3086)" stroke-width="2" stroke-linecap="round" stroke-linejoin="round"/>
<path d="M482.263 65.8921V164.653C482.263 165.792 481.959 166.909 481.382 167.89C480.805 168.872 479.976 169.68 478.981 170.232L389.78 219.815C388.834 220.339 387.771 220.615 386.689 220.615C385.608 220.615 384.545 220.339 383.599 219.815L294.398 170.232C293.403 169.68 292.574 168.872 291.997 167.89C291.42 166.909 291.116 165.792 291.116 164.653V65.8921C291.118 64.7555 291.422 63.64 291.999 62.661C292.576 61.682 293.404 60.8751 294.398 60.3239L383.599 10.7307C384.545 10.206 385.608 9.93066 386.689 9.93066C387.771 9.93066 388.834 10.206 389.78 10.7307L478.981 60.3239C479.975 60.8751 480.803 61.682 481.38 62.661C481.956 63.64 482.261 64.7555 482.263 65.8921Z" fill="#1C0043"/>
<path d="M291.999 62.661L383.589 113.553C384.536 114.08 385.601 114.356 386.684 114.356C387.768 114.356 388.833 114.08 389.78 113.553L481.38 62.661M386.689 220.615L386.69 115.275L386.689 220.615Z" fill="#1C0043"/>
<path d="M386.689 220.615C387.771 220.615 388.834 220.339 389.78 219.815L478.981 170.232C479.976 169.68 480.805 168.872 481.382 167.89C481.959 166.909 482.263 165.792 482.263 164.653V65.8921C482.261 64.7555 481.956 63.64 481.38 62.661M386.689 220.615C385.608 220.615 384.545 220.339 383.599 219.815L294.398 170.232C293.403 169.68 292.574 168.872 291.997 167.89C291.42 166.909 291.116 165.792 291.116 164.653V65.8921C291.118 64.7555 291.422 63.64 291.999 62.661M386.689 220.615L386.69 115.275M291.999 62.661C292.576 61.682 293.404 60.8751 294.398 60.3239L383.599 10.7307C384.545 10.206 385.608 9.93066 386.689 9.93066C387.771 9.93066 388.834 10.206 389.78 10.7307L478.981 60.3239C479.975 60.8751 480.803 61.682 481.38 62.661M291.999 62.661L383.589 113.553C384.536 114.08 385.601 114.356 386.684 114.356C387.768 114.356 388.833 114.08 389.78 113.553L481.38 62.661" stroke="url(#paint5_linear_2004_3086)" stroke-width="2" stroke-linecap="round" stroke-linejoin="round"/>
<g style="mix-blend-mode:overlay" filter="url(#filter3_f_2004_3086)">
<circle cx="387" cy="115" r="50" fill="white"/>
</g>
<g filter="url(#filter4_f_2004_3086)">
<path d="M668.631 383.2C669.712 383.2 670.776 382.925 671.721 382.4L760.923 332.818C761.918 332.266 762.747 331.457 763.324 330.476C763.901 329.495 764.205 328.377 764.204 327.239V228.478C764.203 227.341 763.898 226.225 763.321 225.246M668.631 383.2C667.55 383.2 666.486 382.925 665.541 382.4L576.339 332.818C575.344 332.266 574.515 331.457 573.938 330.476C573.361 329.495 573.057 328.377 573.058 327.239V228.478C573.059 227.341 573.364 226.225 573.941 225.246M668.631 383.2L668.631 277.859M573.941 225.246C574.518 224.267 575.346 223.461 576.339 222.909L665.541 173.316C666.486 172.791 667.55 172.516 668.631 172.516C669.712 172.516 670.776 172.791 671.721 173.316L760.923 222.909C761.916 223.461 762.744 224.267 763.321 225.246M573.941 225.246L665.53 276.138C666.477 276.665 667.542 276.941 668.626 276.941C669.709 276.941 670.774 276.665 671.721 276.138L763.321 225.246" stroke="url(#paint6_linear_2004_3086)" stroke-width="2" stroke-linecap="round" stroke-linejoin="round"/>
</g>
<path d="M764.204 228.478V327.239C764.205 328.377 763.901 329.495 763.324 330.476C762.747 331.457 761.918 332.266 760.923 332.818L671.721 382.4C670.776 382.925 669.712 383.2 668.631 383.2C667.55 383.2 666.486 382.925 665.541 382.4L576.339 332.818C575.344 332.266 574.515 331.457 573.938 330.476C573.361 329.495 573.057 328.377 573.058 327.239V228.478C573.059 227.341 573.364 226.225 573.941 225.246C574.518 224.267 575.346 223.461 576.339 222.909L665.541 173.316C666.486 172.791 667.55 172.516 668.631 172.516C669.712 172.516 670.776 172.791 671.721 173.316L760.923 222.909C761.916 223.461 762.744 224.267 763.321 225.246C763.898 226.225 764.203 227.341 764.204 228.478Z" fill="#1C0043"/>
<path d="M573.941 225.246L665.53 276.138C666.477 276.665 667.542 276.941 668.626 276.941C669.709 276.941 670.774 276.665 671.721 276.138L763.321 225.246M668.631 383.2L668.631 277.859L668.631 383.2Z" fill="#1C0043"/>
<path d="M668.631 383.2C669.712 383.2 670.776 382.925 671.721 382.4L760.923 332.818C761.918 332.266 762.747 331.457 763.324 330.476C763.901 329.495 764.205 328.377 764.204 327.239V228.478C764.203 227.341 763.898 226.225 763.321 225.246M668.631 383.2C667.55 383.2 666.486 382.925 665.541 382.4L576.339 332.818C575.344 332.266 574.515 331.457 573.938 330.476C573.361 329.495 573.057 328.377 573.058 327.239V228.478C573.059 227.341 573.364 226.225 573.941 225.246M668.631 383.2L668.631 277.859M573.941 225.246C574.518 224.267 575.346 223.461 576.339 222.909L665.541 173.316C666.486 172.791 667.55 172.516 668.631 172.516C669.712 172.516 670.776 172.791 671.721 173.316L760.923 222.909C761.916 223.461 762.744 224.267 763.321 225.246M573.941 225.246L665.53 276.138C666.477 276.665 667.542 276.941 668.626 276.941C669.709 276.941 670.774 276.665 671.721 276.138L763.321 225.246" stroke="url(#paint7_linear_2004_3086)" stroke-width="2" stroke-linecap="round" stroke-linejoin="round"/>
<path d="M764.263 228V326.762C764.263 327.9 763.959 329.018 763.382 329.999C762.805 330.98 761.976 331.788 760.981 332.341L671.78 381.923C670.834 382.448 669.771 382.723 668.689 382.723C667.608 382.723 666.545 382.448 665.599 381.923L576.398 332.341C575.403 331.788 574.574 330.98 573.997 329.999C573.42 329.018 573.116 327.9 573.116 326.762V228C573.118 226.864 573.422 225.748 573.999 224.769C574.576 223.79 575.404 222.984 576.398 222.432L665.599 172.839C666.545 172.314 667.608 172.039 668.689 172.039C669.771 172.039 670.834 172.314 671.78 172.839L760.981 222.432C761.975 222.984 762.803 223.79 763.38 224.769C763.956 225.748 764.261 226.864 764.263 228Z" fill="#1C0043"/>
<path d="M573.999 224.769L665.589 275.662C666.536 276.188 667.601 276.465 668.684 276.465C669.768 276.465 670.833 276.188 671.78 275.662L763.38 224.769M668.689 382.723L668.69 277.383L668.689 382.723Z" fill="#1C0043"/>
<path d="M668.689 382.723C669.771 382.723 670.834 382.448 671.78 381.923L760.981 332.341C761.976 331.788 762.805 330.98 763.382 329.999C763.959 329.018 764.263 327.9 764.263 326.762V228C764.261 226.864 763.956 225.748 763.38 224.769M668.689 382.723C667.608 382.723 666.545 382.448 665.599 381.923L576.398 332.341C575.403 331.788 574.574 330.98 573.997 329.999C573.42 329.018 573.116 327.9 573.116 326.762V228C573.118 226.864 573.422 225.748 573.999 224.769M668.689 382.723L668.69 277.383M573.999 224.769C574.576 223.79 575.404 222.984 576.398 222.432L665.599 172.839C666.545 172.314 667.608 172.039 668.689 172.039C669.771 172.039 670.834 172.314 671.78 172.839L760.981 222.432C761.975 222.984 762.803 223.79 763.38 224.769M573.999 224.769L665.589 275.662C666.536 276.188 667.601 276.465 668.684 276.465C669.768 276.465 670.833 276.188 671.78 275.662L763.38 224.769" stroke="url(#paint8_linear_2004_3086)" stroke-width="2" stroke-linecap="round" stroke-linejoin="round"/>
<g style="mix-blend-mode:overlay" filter="url(#filter5_f_2004_3086)">
<circle cx="669" cy="277" r="50" fill="white"/>
</g>
<g filter="url(#filter6_f_2004_3086)">
<path d="M386.689 550.562C387.771 550.562 388.834 550.286 389.78 549.761L478.981 500.179C479.976 499.627 480.805 498.818 481.382 497.837C481.959 496.856 482.263 495.738 482.263 494.6V395.839C482.261 394.702 481.956 393.587 481.38 392.608C480.803 391.629 479.975 390.822 478.981 390.271L389.78 340.678C388.834 340.153 387.771 339.877 386.689 339.877C385.608 339.877 384.545 340.153 383.599 340.678L294.398 390.271C293.404 390.822 292.576 391.629 291.999 392.608C291.422 393.587 291.118 394.702 291.116 395.839V494.6C291.116 495.738 291.42 496.856 291.997 497.837C292.574 498.818 293.403 499.627 294.398 500.179L383.599 549.761C384.545 550.286 385.608 550.562 386.689 550.562ZM386.689 550.562L386.69 445.222M296.723 395.215L383.589 443.501C384.536 444.027 385.601 444.304 386.684 444.304C387.768 444.304 388.833 444.027 389.78 443.501L476.953 395.045" stroke="url(#paint9_linear_2004_3086)" stroke-width="2" stroke-linecap="round" stroke-linejoin="round"/>
</g>
<path d="M482.263 395.839V494.6C482.263 495.738 481.959 496.856 481.382 497.837C480.805 498.818 479.976 499.627 478.981 500.179L389.78 549.761C388.834 550.286 387.771 550.562 386.689 550.562C385.608 550.562 384.545 550.286 383.599 549.761L294.398 500.179C293.403 499.627 292.574 498.818 291.997 497.837C291.42 496.856 291.116 495.738 291.116 494.6V395.839C291.118 394.702 291.422 393.587 291.999 392.608C292.576 391.629 293.404 390.822 294.398 390.271L383.599 340.678C384.545 340.153 385.608 339.877 386.689 339.877C387.771 339.877 388.834 340.153 389.78 340.678L478.981 390.271C479.975 390.822 480.803 391.629 481.38 392.608C481.956 393.587 482.261 394.702 482.263 395.839Z" fill="#1C0043"/>
<path d="M291.999 392.608L383.589 443.501C384.536 444.027 385.601 444.304 386.684 444.304C387.768 444.304 388.833 444.027 389.78 443.501L481.38 392.608M386.689 550.562L386.69 445.222L386.689 550.562Z" fill="#1C0043"/>
<path d="M386.689 550.562C387.771 550.562 388.834 550.286 389.78 549.761L478.981 500.179C479.976 499.627 480.805 498.818 481.382 497.837C481.959 496.856 482.263 495.738 482.263 494.6V395.839C482.261 394.702 481.956 393.587 481.38 392.608M386.689 550.562C385.608 550.562 384.545 550.286 383.599 549.761L294.398 500.179C293.403 499.627 292.574 498.818 291.997 497.837C291.42 496.856 291.116 495.738 291.116 494.6V395.839C291.118 394.702 291.422 393.587 291.999 392.608M386.689 550.562L386.69 445.222M291.999 392.608C292.576 391.629 293.404 390.822 294.398 390.271L383.599 340.678C384.545 340.153 385.608 339.877 386.689 339.877C387.771 339.877 388.834 340.153 389.78 340.678L478.981 390.271C479.975 390.822 480.803 391.629 481.38 392.608M291.999 392.608L383.589 443.501C384.536 444.027 385.601 444.304 386.684 444.304C387.768 444.304 388.833 444.027 389.78 443.501L481.38 392.608" stroke="url(#paint10_linear_2004_3086)" stroke-width="2" stroke-linecap="round" stroke-linejoin="round"/>
<path d="M482.263 396.112V494.874C482.263 496.012 481.959 497.13 481.382 498.111C480.805 499.092 479.976 499.9 478.981 500.452L389.78 550.035C388.834 550.56 387.771 550.835 386.689 550.835C385.608 550.835 384.545 550.56 383.599 550.035L294.398 500.452C293.403 499.9 292.574 499.092 291.997 498.111C291.42 497.13 291.116 496.012 291.116 494.874V396.112C291.118 394.976 291.422 393.86 291.999 392.881C292.576 391.902 293.404 391.095 294.398 390.544L383.599 340.951C384.545 340.426 385.608 340.151 386.689 340.151C387.771 340.151 388.834 340.426 389.78 340.951L478.981 390.544C479.975 391.095 480.803 391.902 481.38 392.881C481.956 393.86 482.261 394.976 482.263 396.112Z" fill="#1C0043"/>
<path d="M291.999 392.881L383.589 443.773C384.536 444.3 385.601 444.576 386.684 444.576C387.768 444.576 388.833 444.3 389.78 443.773L481.38 392.881M386.689 550.835L386.69 445.495L386.689 550.835Z" fill="#1C0043"/>
<path d="M386.689 550.835C387.771 550.835 388.834 550.56 389.78 550.035L478.981 500.452C479.976 499.9 480.805 499.092 481.382 498.111C481.959 497.13 482.263 496.012 482.263 494.874V396.112C482.261 394.976 481.956 393.86 481.38 392.881M386.689 550.835C385.608 550.835 384.545 550.56 383.599 550.035L294.398 500.452C293.403 499.9 292.574 499.092 291.997 498.111C291.42 497.13 291.116 496.012 291.116 494.874V396.112C291.118 394.976 291.422 393.86 291.999 392.881M386.689 550.835L386.69 445.495M291.999 392.881C292.576 391.902 293.404 391.095 294.398 390.544L383.599 340.951C384.545 340.426 385.608 340.151 386.689 340.151C387.771 340.151 388.834 340.426 389.78 340.951L478.981 390.544C479.975 391.095 480.803 391.902 481.38 392.881M291.999 392.881L383.589 443.773C384.536 444.3 385.601 444.576 386.684 444.576C387.768 444.576 388.833 444.3 389.78 443.773L481.38 392.881" stroke="url(#paint11_linear_2004_3086)" stroke-width="2" stroke-linecap="round" stroke-linejoin="round"/>
<g style="mix-blend-mode:overlay" filter="url(#filter7_f_2004_3086)">
<circle cx="387" cy="445" r="50" fill="white"/>
</g>
<g filter="url(#filter8_f_2004_3086)">
<path d="M104.748 708.364C105.829 708.364 106.893 708.089 107.838 707.564L197.04 657.982C198.035 657.43 198.864 656.621 199.441 655.64C200.018 654.659 200.322 653.541 200.321 652.403V553.642C200.32 552.505 200.015 551.39 199.438 550.411M104.748 708.364C103.667 708.364 102.603 708.089 101.658 707.564L12.4562 657.982C11.4613 657.43 10.6323 656.621 10.0553 655.64C9.47828 654.659 9.17425 653.541 9.17481 652.403V553.642C9.17615 552.505 9.48107 551.39 10.058 550.411M104.748 708.364L104.748 603.024M10.058 550.411C10.6349 549.432 11.4629 548.625 12.4562 548.073L101.658 498.48C102.603 497.956 103.667 497.68 104.748 497.68C105.829 497.68 106.893 497.956 107.838 498.48L197.04 548.073C198.033 548.625 198.861 549.432 199.438 550.411M10.058 550.411L101.647 601.303C102.594 601.829 103.66 602.106 104.743 602.106C105.826 602.106 106.892 601.829 107.838 601.303L199.438 550.411" stroke="url(#paint12_linear_2004_3086)" stroke-width="2" stroke-linecap="round" stroke-linejoin="round"/>
</g>
<path d="M200.321 553.642V652.403C200.322 653.541 200.018 654.659 199.441 655.64C198.864 656.621 198.035 657.43 197.04 657.982L107.838 707.564C106.893 708.089 105.829 708.364 104.748 708.364C103.667 708.364 102.603 708.089 101.658 707.564L12.4562 657.982C11.4613 657.43 10.6323 656.621 10.0553 655.64C9.47828 654.659 9.17425 653.541 9.17481 652.403V553.642C9.17615 552.505 9.48107 551.39 10.058 550.411C10.6349 549.432 11.4629 548.625 12.4562 548.073L101.658 498.48C102.603 497.956 103.667 497.68 104.748 497.68C105.829 497.68 106.893 497.956 107.838 498.48L197.04 548.073C198.033 548.625 198.861 549.432 199.438 550.411C200.015 551.39 200.32 552.505 200.321 553.642Z" fill="#1C0043"/>
<path d="M10.058 550.411L101.647 601.303C102.594 601.829 103.66 602.106 104.743 602.106C105.826 602.106 106.892 601.829 107.838 601.303L199.438 550.411M104.748 708.364L104.748 603.024L104.748 708.364Z" fill="#1C0043"/>
<path d="M104.748 708.364C105.829 708.364 106.893 708.089 107.838 707.564L197.04 657.982C198.035 657.43 198.864 656.621 199.441 655.64C200.018 654.659 200.322 653.541 200.321 652.403V553.642C200.32 552.505 200.015 551.39 199.438 550.411M104.748 708.364C103.667 708.364 102.603 708.089 101.658 707.564L12.4562 657.982C11.4613 657.43 10.6323 656.621 10.0553 655.64C9.47828 654.659 9.17425 653.541 9.17481 652.403V553.642C9.17615 552.505 9.48107 551.39 10.058 550.411M104.748 708.364L104.748 603.024M10.058 550.411C10.6349 549.432 11.4629 548.625 12.4562 548.073L101.658 498.48C102.603 497.956 103.667 497.68 104.748 497.68C105.829 497.68 106.893 497.956 107.838 498.48L197.04 548.073C198.033 548.625 198.861 549.432 199.438 550.411M10.058 550.411L101.647 601.303C102.594 601.829 103.66 602.106 104.743 602.106C105.826 602.106 106.892 601.829 107.838 601.303L199.438 550.411" stroke="url(#paint13_linear_2004_3086)" stroke-width="2" stroke-linecap="round" stroke-linejoin="round"/>
<path d="M200.263 553.217V651.979C200.263 653.117 199.959 654.235 199.382 655.216C198.805 656.197 197.976 657.005 196.981 657.557L107.78 707.14C106.834 707.665 105.771 707.94 104.689 707.94C103.608 707.94 102.545 707.665 101.599 707.14L12.3976 657.557C11.4027 657.005 10.5737 656.197 9.99671 655.216C9.41968 654.235 9.11566 653.117 9.11621 651.979V553.217C9.11755 552.081 9.42248 550.965 9.9994 549.986C10.5763 549.007 11.4043 548.2 12.3976 547.649L101.599 498.056C102.545 497.531 103.608 497.256 104.689 497.256C105.771 497.256 106.834 497.531 107.78 498.056L196.981 547.649C197.975 548.2 198.803 549.007 199.38 549.986C199.956 550.965 200.261 552.081 200.263 553.217Z" fill="#1C0043"/>
<path d="M9.9994 549.986L101.589 600.878C102.536 601.405 103.601 601.681 104.684 601.681C105.768 601.681 106.833 601.405 107.78 600.878L199.38 549.986M104.689 707.94L104.69 602.6L104.689 707.94Z" fill="#1C0043"/>
<path d="M104.689 707.94C105.771 707.94 106.834 707.665 107.78 707.14L196.981 657.557C197.976 657.005 198.805 656.197 199.382 655.216C199.959 654.235 200.263 653.117 200.263 651.979V553.217C200.261 552.081 199.956 550.965 199.38 549.986M104.689 707.94C103.608 707.94 102.545 707.665 101.599 707.14L12.3976 657.557C11.4027 657.005 10.5737 656.197 9.99671 655.216C9.41968 654.235 9.11566 653.117 9.11621 651.979V553.217C9.11755 552.081 9.42248 550.965 9.9994 549.986M104.689 707.94L104.69 602.6M9.9994 549.986C10.5763 549.007 11.4043 548.2 12.3976 547.649L101.599 498.056C102.545 497.531 103.608 497.256 104.689 497.256C105.771 497.256 106.834 497.531 107.78 498.056L196.981 547.649C197.975 548.2 198.803 549.007 199.38 549.986M9.9994 549.986L101.589 600.878C102.536 601.405 103.601 601.681 104.684 601.681C105.768 601.681 106.833 601.405 107.78 600.878L199.38 549.986" stroke="url(#paint14_linear_2004_3086)" stroke-width="2" stroke-linecap="round" stroke-linejoin="round"/>
<g style="mix-blend-mode:overlay" filter="url(#filter9_f_2004_3086)">
<circle cx="105" cy="602" r="50" fill="white"/>
</g>
<g filter="url(#filter10_f_2004_3086)">
<path d="M386.689 880.512C387.771 880.512 388.834 880.237 389.78 879.712L478.981 830.13C479.976 829.578 480.805 828.769 481.382 827.788C481.959 826.807 482.263 825.689 482.263 824.551V725.79C482.261 724.653 481.956 723.537 481.38 722.558M386.689 880.512C385.608 880.512 384.545 880.237 383.599 879.712L294.398 830.13C293.403 829.578 292.574 828.769 291.997 827.788C291.42 826.807 291.116 825.689 291.116 824.551V725.79C291.118 724.653 291.422 723.537 291.999 722.558M386.689 880.512L386.69 775.172M291.999 722.558C292.576 721.579 293.404 720.773 294.398 720.221L383.599 670.628C384.545 670.103 385.608 669.828 386.689 669.828C387.771 669.828 388.834 670.103 389.78 670.628L478.981 720.221C479.975 720.773 480.803 721.579 481.38 722.558M291.999 722.558L383.589 773.45C384.536 773.977 385.601 774.253 386.684 774.253C387.768 774.253 388.833 773.977 389.78 773.45L481.38 722.558" stroke="url(#paint15_linear_2004_3086)" stroke-width="2" stroke-linecap="round" stroke-linejoin="round"/>
</g>
<path d="M482.263 725.79V824.551C482.263 825.689 481.959 826.807 481.382 827.788C480.805 828.769 479.976 829.578 478.981 830.13L389.78 879.712C388.834 880.237 387.771 880.512 386.689 880.512C385.608 880.512 384.545 880.237 383.599 879.712L294.398 830.13C293.403 829.578 292.574 828.769 291.997 827.788C291.42 826.807 291.116 825.689 291.116 824.551V725.79C291.118 724.653 291.422 723.537 291.999 722.558C292.576 721.579 293.404 720.773 294.398 720.221L383.599 670.628C384.545 670.103 385.608 669.828 386.689 669.828C387.771 669.828 388.834 670.103 389.78 670.628L478.981 720.221C479.975 720.773 480.803 721.579 481.38 722.558C481.956 723.537 482.261 724.653 482.263 725.79Z" fill="#1C0043"/>
<path d="M291.999 722.558L383.589 773.45C384.536 773.977 385.601 774.253 386.684 774.253C387.768 774.253 388.833 773.977 389.78 773.45L481.38 722.558M386.689 880.512L386.69 775.172L386.689 880.512Z" fill="#1C0043"/>
<path d="M386.689 880.512C387.771 880.512 388.834 880.237 389.78 879.712L478.981 830.13C479.976 829.578 480.805 828.769 481.382 827.788C481.959 826.807 482.263 825.689 482.263 824.551V725.79C482.261 724.653 481.956 723.537 481.38 722.558M386.689 880.512C385.608 880.512 384.545 880.237 383.599 879.712L294.398 830.13C293.403 829.578 292.574 828.769 291.997 827.788C291.42 826.807 291.116 825.689 291.116 824.551V725.79C291.118 724.653 291.422 723.537 291.999 722.558M386.689 880.512L386.69 775.172M291.999 722.558C292.576 721.579 293.404 720.773 294.398 720.221L383.599 670.628C384.545 670.103 385.608 669.828 386.689 669.828C387.771 669.828 388.834 670.103 389.78 670.628L478.981 720.221C479.975 720.773 480.803 721.579 481.38 722.558M291.999 722.558L383.589 773.45C384.536 773.977 385.601 774.253 386.684 774.253C387.768 774.253 388.833 773.977 389.78 773.45L481.38 722.558" stroke="url(#paint16_linear_2004_3086)" stroke-width="2" stroke-linecap="round" stroke-linejoin="round"/>
<path d="M482.263 725.332V824.093C482.263 825.232 481.959 826.349 481.382 827.33C480.805 828.311 479.976 829.12 478.981 829.672L389.78 879.255C388.834 879.779 387.771 880.055 386.689 880.055C385.608 880.055 384.545 879.779 383.599 879.255L294.398 829.672C293.403 829.12 292.574 828.311 291.997 827.33C291.42 826.349 291.116 825.232 291.116 824.093V725.332C291.118 724.195 291.422 723.08 291.999 722.101C292.576 721.122 293.404 720.315 294.398 719.764L383.599 670.171C384.545 669.646 385.608 669.371 386.689 669.371C387.771 669.371 388.834 669.646 389.78 670.171L478.981 719.764C479.975 720.315 480.803 721.122 481.38 722.101C481.956 723.08 482.261 724.195 482.263 725.332Z" fill="#1C0043"/>
<path d="M291.999 722.101L383.589 772.993C384.536 773.52 385.601 773.796 386.684 773.796C387.768 773.796 388.833 773.52 389.78 772.993L481.38 722.101M386.689 880.055L386.69 774.715L386.689 880.055Z" fill="#1C0043"/>
<path d="M386.689 880.055C387.771 880.055 388.834 879.779 389.78 879.255L478.981 829.672C479.976 829.12 480.805 828.311 481.382 827.33C481.959 826.349 482.263 825.232 482.263 824.093V725.332C482.261 724.195 481.956 723.08 481.38 722.101M386.689 880.055C385.608 880.055 384.545 879.779 383.599 879.255L294.398 829.672C293.403 829.12 292.574 828.311 291.997 827.33C291.42 826.349 291.116 825.232 291.116 824.093V725.332C291.118 724.195 291.422 723.08 291.999 722.101M386.689 880.055L386.69 774.715M291.999 722.101C292.576 721.122 293.404 720.315 294.398 719.764L383.599 670.171C384.545 669.646 385.608 669.371 386.689 669.371C387.771 669.371 388.834 669.646 389.78 670.171L478.981 719.764C479.975 720.315 480.803 721.122 481.38 722.101M291.999 722.101L383.589 772.993C384.536 773.52 385.601 773.796 386.684 773.796C387.768 773.796 388.833 773.52 389.78 772.993L481.38 722.101" stroke="url(#paint17_linear_2004_3086)" stroke-width="2" stroke-linecap="round" stroke-linejoin="round"/>
<g style="mix-blend-mode:overlay" filter="url(#filter11_f_2004_3086)">
<circle cx="387" cy="774" r="50" fill="white"/>
</g>
<g filter="url(#filter12_f_2004_3086)">
<path d="M668.631 708.364C669.712 708.364 670.776 708.089 671.721 707.564L760.923 657.982C761.918 657.43 762.747 656.621 763.324 655.64C763.901 654.659 764.205 653.541 764.204 652.403V553.642C764.203 552.505 763.898 551.39 763.321 550.411M668.631 708.364C667.55 708.364 666.486 708.089 665.541 707.564L576.339 657.982C575.344 657.43 574.515 656.621 573.938 655.64C573.361 654.659 573.057 653.541 573.058 652.403V553.642C573.059 552.505 573.364 551.39 573.941 550.411M668.631 708.364L668.631 603.024M573.941 550.411C574.518 549.432 575.346 548.625 576.339 548.073L665.541 498.48C666.486 497.956 667.55 497.68 668.631 497.68C669.712 497.68 670.776 497.956 671.721 498.48L760.923 548.073C761.916 548.625 762.744 549.432 763.321 550.411M573.941 550.411L665.53 601.303C666.477 601.829 667.542 602.106 668.626 602.106C669.709 602.106 670.774 601.829 671.721 601.303L763.321 550.411" stroke="url(#paint18_linear_2004_3086)" stroke-width="2" stroke-linecap="round" stroke-linejoin="round"/>
</g>
<path d="M764.204 553.642V652.403C764.205 653.541 763.901 654.659 763.324 655.64C762.747 656.621 761.918 657.43 760.923 657.982L671.721 707.564C670.776 708.089 669.712 708.364 668.631 708.364C667.55 708.364 666.486 708.089 665.541 707.564L576.339 657.982C575.344 657.43 574.515 656.621 573.938 655.64C573.361 654.659 573.057 653.541 573.058 652.403V553.642C573.059 552.505 573.364 551.39 573.941 550.411C574.518 549.432 575.346 548.625 576.339 548.073L665.541 498.48C666.486 497.956 667.55 497.68 668.631 497.68C669.712 497.68 670.776 497.956 671.721 498.48L760.923 548.073C761.916 548.625 762.744 549.432 763.321 550.411C763.898 551.39 764.203 552.505 764.204 553.642Z" fill="#1C0043"/>
<path d="M573.941 550.411L665.53 601.303C666.477 601.829 667.542 602.106 668.626 602.106C669.709 602.106 670.774 601.829 671.721 601.303L763.321 550.411M668.631 708.364L668.631 603.024L668.631 708.364Z" fill="#1C0043"/>
<path d="M668.631 708.364C669.712 708.364 670.776 708.089 671.721 707.564L760.923 657.982C761.918 657.43 762.747 656.621 763.324 655.64C763.901 654.659 764.205 653.541 764.204 652.403V553.642C764.203 552.505 763.898 551.39 763.321 550.411M668.631 708.364C667.55 708.364 666.486 708.089 665.541 707.564L576.339 657.982C575.344 657.43 574.515 656.621 573.938 655.64C573.361 654.659 573.057 653.541 573.058 652.403V553.642C573.059 552.505 573.364 551.39 573.941 550.411M668.631 708.364L668.631 603.024M573.941 550.411C574.518 549.432 575.346 548.625 576.339 548.073L665.541 498.48C666.486 497.956 667.55 497.68 668.631 497.68C669.712 497.68 670.776 497.956 671.721 498.48L760.923 548.073C761.916 548.625 762.744 549.432 763.321 550.411M573.941 550.411L665.53 601.303C666.477 601.829 667.542 602.106 668.626 602.106C669.709 602.106 670.774 601.829 671.721 601.303L763.321 550.411" stroke="url(#paint19_linear_2004_3086)" stroke-width="2" stroke-linecap="round" stroke-linejoin="round"/>
<path d="M764.263 553.217V651.979C764.263 653.117 763.959 654.235 763.382 655.216C762.805 656.197 761.976 657.005 760.981 657.557L671.78 707.14C670.834 707.665 669.771 707.94 668.689 707.94C667.608 707.94 666.545 707.665 665.599 707.14L576.398 657.557C575.403 657.005 574.574 656.197 573.997 655.216C573.42 654.235 573.116 653.117 573.116 651.979V553.217C573.118 552.081 573.422 550.965 573.999 549.986C574.576 549.007 575.404 548.2 576.398 547.649L665.599 498.056C666.545 497.531 667.608 497.256 668.689 497.256C669.771 497.256 670.834 497.531 671.78 498.056L760.981 547.649C761.975 548.2 762.803 549.007 763.38 549.986C763.956 550.965 764.261 552.081 764.263 553.217Z" fill="#1C0043"/>
<path d="M573.999 549.986L665.589 600.878C666.536 601.405 667.601 601.681 668.684 601.681C669.768 601.681 670.833 601.405 671.78 600.878L763.38 549.986M668.689 707.94L668.69 602.6L668.689 707.94Z" fill="#1C0043"/>
<path d="M668.689 707.94C669.771 707.94 670.834 707.665 671.78 707.14L760.981 657.557C761.976 657.005 762.805 656.197 763.382 655.216C763.959 654.235 764.263 653.117 764.263 651.979V553.217C764.261 552.081 763.956 550.965 763.38 549.986M668.689 707.94C667.608 707.94 666.545 707.665 665.599 707.14L576.398 657.557C575.403 657.005 574.574 656.197 573.997 655.216C573.42 654.235 573.116 653.117 573.116 651.979V553.217C573.118 552.081 573.422 550.965 573.999 549.986M668.689 707.94L668.69 602.6M573.999 549.986C574.576 549.007 575.404 548.2 576.398 547.649L665.599 498.056C666.545 497.531 667.608 497.256 668.689 497.256C669.771 497.256 670.834 497.531 671.78 498.056L760.981 547.649C761.975 548.2 762.803 549.007 763.38 549.986M573.999 549.986L665.589 600.878C666.536 601.405 667.601 601.681 668.684 601.681C669.768 601.681 670.833 601.405 671.78 600.878L763.38 549.986" stroke="url(#paint20_linear_2004_3086)" stroke-width="2" stroke-linecap="round" stroke-linejoin="round"/>
<g style="mix-blend-mode:overlay" filter="url(#filter13_f_2004_3086)">
<circle cx="669" cy="602" r="50" fill="white"/>
</g>
<line x1="664.852" y1="378.737" x2="664.852" y2="493.425" stroke="white" stroke-opacity="0.25" stroke-width="2" stroke-dasharray="4 4"/>
<line x1="577.307" y1="651.988" x2="477.984" y2="709.332" stroke="white" stroke-opacity="0.25" stroke-width="2" stroke-dasharray="4 4"/>
<line x1="382.911" y1="550.768" x2="382.911" y2="665.456" stroke="white" stroke-opacity="0.25" stroke-width="2" stroke-dasharray="4 4"/>
<line x1="196.043" y1="659.812" x2="295.366" y2="717.156" stroke="white" stroke-opacity="0.25" stroke-width="2" stroke-dasharray="4 4"/>
<line x1="195.043" y1="554.681" x2="294.366" y2="497.337" stroke="white" stroke-opacity="0.25" stroke-width="2" stroke-dasharray="4 4"/>
<line x1="108.527" y1="498.204" x2="108.527" y2="383.516" stroke="white" stroke-opacity="0.25" stroke-width="2" stroke-dasharray="4 4"/>
<line x1="299.145" y1="384.38" x2="199.822" y2="327.036" stroke="white" stroke-opacity="0.25" stroke-width="2" stroke-dasharray="4 4"/>
<line x1="382.911" y1="216.262" x2="382.911" y2="335.729" stroke="white" stroke-opacity="0.25" stroke-width="2" stroke-dasharray="4 4"/>
<line x1="576.31" y1="322.259" x2="480.391" y2="377.638" stroke="white" stroke-opacity="0.25" stroke-width="2" stroke-dasharray="4 4"/>
<line x1="585.224" y1="549.245" x2="481.763" y2="489.512" stroke="white" stroke-opacity="0.25" stroke-width="2" stroke-dasharray="4 4"/>
<line x1="477.984" y1="167.611" x2="581.445" y2="227.344" stroke="white" stroke-opacity="0.25" stroke-width="2" stroke-dasharray="4 4"/>
<line x1="289.946" y1="159.783" x2="186.485" y2="219.516" stroke="white" stroke-opacity="0.25" stroke-width="2" stroke-dasharray="4 4"/>
<defs>
<filter id="filter0_f_2004_3086" x="0.174805" y="163.516" width="209.146" height="228.684" filterUnits="userSpaceOnUse" color-interpolation-filters="sRGB">
<feFlood flood-opacity="0" result="BackgroundImageFix"/>
<feBlend mode="normal" in="SourceGraphic" in2="BackgroundImageFix" result="shape"/>
<feGaussianBlur stdDeviation="4" result="effect1_foregroundBlur_2004_3086"/>
</filter>
<filter id="filter1_f_2004_3086" x="15" y="187" width="180" height="180" filterUnits="userSpaceOnUse" color-interpolation-filters="sRGB">
<feFlood flood-opacity="0" result="BackgroundImageFix"/>
<feBlend mode="normal" in="SourceGraphic" in2="BackgroundImageFix" result="shape"/>
<feGaussianBlur stdDeviation="20" result="effect1_foregroundBlur_2004_3086"/>
</filter>
<filter id="filter2_f_2004_3086" x="282.116" y="0.930664" width="209.146" height="228.684" filterUnits="userSpaceOnUse" color-interpolation-filters="sRGB">
<feFlood flood-opacity="0" result="BackgroundImageFix"/>
<feBlend mode="normal" in="SourceGraphic" in2="BackgroundImageFix" result="shape"/>
<feGaussianBlur stdDeviation="4" result="effect1_foregroundBlur_2004_3086"/>
</filter>
<filter id="filter3_f_2004_3086" x="297" y="25.0005" width="180" height="180" filterUnits="userSpaceOnUse" color-interpolation-filters="sRGB">
<feFlood flood-opacity="0" result="BackgroundImageFix"/>
<feBlend mode="normal" in="SourceGraphic" in2="BackgroundImageFix" result="shape"/>
<feGaussianBlur stdDeviation="20" result="effect1_foregroundBlur_2004_3086"/>
</filter>
<filter id="filter4_f_2004_3086" x="564.058" y="163.516" width="209.146" height="228.684" filterUnits="userSpaceOnUse" color-interpolation-filters="sRGB">
<feFlood flood-opacity="0" result="BackgroundImageFix"/>
<feBlend mode="normal" in="SourceGraphic" in2="BackgroundImageFix" result="shape"/>
<feGaussianBlur stdDeviation="4" result="effect1_foregroundBlur_2004_3086"/>
</filter>
<filter id="filter5_f_2004_3086" x="579" y="187" width="180" height="180" filterUnits="userSpaceOnUse" color-interpolation-filters="sRGB">
<feFlood flood-opacity="0" result="BackgroundImageFix"/>
<feBlend mode="normal" in="SourceGraphic" in2="BackgroundImageFix" result="shape"/>
<feGaussianBlur stdDeviation="20" result="effect1_foregroundBlur_2004_3086"/>
</filter>
<filter id="filter6_f_2004_3086" x="282.116" y="330.877" width="209.146" height="228.684" filterUnits="userSpaceOnUse" color-interpolation-filters="sRGB">
<feFlood flood-opacity="0" result="BackgroundImageFix"/>
<feBlend mode="normal" in="SourceGraphic" in2="BackgroundImageFix" result="shape"/>
<feGaussianBlur stdDeviation="4" result="effect1_foregroundBlur_2004_3086"/>
</filter>
<filter id="filter7_f_2004_3086" x="297" y="355" width="180" height="180" filterUnits="userSpaceOnUse" color-interpolation-filters="sRGB">
<feFlood flood-opacity="0" result="BackgroundImageFix"/>
<feBlend mode="normal" in="SourceGraphic" in2="BackgroundImageFix" result="shape"/>
<feGaussianBlur stdDeviation="20" result="effect1_foregroundBlur_2004_3086"/>
</filter>
<filter id="filter8_f_2004_3086" x="0.174805" y="488.68" width="209.146" height="228.684" filterUnits="userSpaceOnUse" color-interpolation-filters="sRGB">
<feFlood flood-opacity="0" result="BackgroundImageFix"/>
<feBlend mode="normal" in="SourceGraphic" in2="BackgroundImageFix" result="shape"/>
<feGaussianBlur stdDeviation="4" result="effect1_foregroundBlur_2004_3086"/>
</filter>
<filter id="filter9_f_2004_3086" x="15" y="512" width="180" height="180" filterUnits="userSpaceOnUse" color-interpolation-filters="sRGB">
<feFlood flood-opacity="0" result="BackgroundImageFix"/>
<feBlend mode="normal" in="SourceGraphic" in2="BackgroundImageFix" result="shape"/>
<feGaussianBlur stdDeviation="20" result="effect1_foregroundBlur_2004_3086"/>
</filter>
<filter id="filter10_f_2004_3086" x="282.116" y="660.828" width="209.146" height="228.684" filterUnits="userSpaceOnUse" color-interpolation-filters="sRGB">
<feFlood flood-opacity="0" result="BackgroundImageFix"/>
<feBlend mode="normal" in="SourceGraphic" in2="BackgroundImageFix" result="shape"/>
<feGaussianBlur stdDeviation="4" result="effect1_foregroundBlur_2004_3086"/>
</filter>
<filter id="filter11_f_2004_3086" x="297" y="684" width="180" height="180" filterUnits="userSpaceOnUse" color-interpolation-filters="sRGB">
<feFlood flood-opacity="0" result="BackgroundImageFix"/>
<feBlend mode="normal" in="SourceGraphic" in2="BackgroundImageFix" result="shape"/>
<feGaussianBlur stdDeviation="20" result="effect1_foregroundBlur_2004_3086"/>
</filter>
<filter id="filter12_f_2004_3086" x="564.058" y="488.68" width="209.146" height="228.684" filterUnits="userSpaceOnUse" color-interpolation-filters="sRGB">
<feFlood flood-opacity="0" result="BackgroundImageFix"/>
<feBlend mode="normal" in="SourceGraphic" in2="BackgroundImageFix" result="shape"/>
<feGaussianBlur stdDeviation="4" result="effect1_foregroundBlur_2004_3086"/>
</filter>
<filter id="filter13_f_2004_3086" x="579" y="512" width="180" height="180" filterUnits="userSpaceOnUse" color-interpolation-filters="sRGB">
<feFlood flood-opacity="0" result="BackgroundImageFix"/>
<feBlend mode="normal" in="SourceGraphic" in2="BackgroundImageFix" result="shape"/>
<feGaussianBlur stdDeviation="20" result="effect1_foregroundBlur_2004_3086"/>
</filter>
<linearGradient id="paint0_linear_2004_3086" x1="9.1748" y1="488.542" x2="200.321" y2="488.542" gradientUnits="userSpaceOnUse">
<stop stop-color="#E6FF67"/>
<stop offset="0.333333" stop-color="#DEA6F8"/>
<stop offset="0.666667" stop-color="#DEA6F8"/>
<stop offset="1" stop-color="#69F3DE"/>
</linearGradient>
<linearGradient id="paint1_linear_2004_3086" x1="9.1748" y1="488.542" x2="200.321" y2="488.542" gradientUnits="userSpaceOnUse">
<stop stop-color="#E6FF67"/>
<stop offset="0.333333" stop-color="#DEA6F8"/>
<stop offset="0.666667" stop-color="#DEA6F8"/>
<stop offset="1" stop-color="#69F3DE"/>
</linearGradient>
<linearGradient id="paint2_linear_2004_3086" x1="9.11621" y1="488.065" x2="200.263" y2="488.065" gradientUnits="userSpaceOnUse">
<stop stop-color="#E6FF67"/>
<stop offset="0.333333" stop-color="#DEA6F8"/>
<stop offset="0.666667" stop-color="#DEA6F8"/>
<stop offset="1" stop-color="#69F3DE"/>
</linearGradient>
<linearGradient id="paint3_linear_2004_3086" x1="291.116" y1="325.957" x2="482.263" y2="325.957" gradientUnits="userSpaceOnUse">
<stop stop-color="#E6FF67"/>
<stop offset="0.333333" stop-color="#DEA6F8"/>
<stop offset="0.666667" stop-color="#DEA6F8"/>
<stop offset="1" stop-color="#69F3DE"/>
</linearGradient>
<linearGradient id="paint4_linear_2004_3086" x1="291.116" y1="325.957" x2="482.263" y2="325.957" gradientUnits="userSpaceOnUse">
<stop stop-color="#E6FF67"/>
<stop offset="0.333333" stop-color="#DEA6F8"/>
<stop offset="0.666667" stop-color="#DEA6F8"/>
<stop offset="1" stop-color="#69F3DE"/>
</linearGradient>
<linearGradient id="paint5_linear_2004_3086" x1="291.116" y1="325.957" x2="482.263" y2="325.957" gradientUnits="userSpaceOnUse">
<stop stop-color="#E6FF67"/>
<stop offset="0.333333" stop-color="#DEA6F8"/>
<stop offset="0.666667" stop-color="#DEA6F8"/>
<stop offset="1" stop-color="#69F3DE"/>
</linearGradient>
<linearGradient id="paint6_linear_2004_3086" x1="573.058" y1="488.542" x2="764.204" y2="488.542" gradientUnits="userSpaceOnUse">
<stop stop-color="#E6FF67"/>
<stop offset="0.333333" stop-color="#DEA6F8"/>
<stop offset="0.666667" stop-color="#DEA6F8"/>
<stop offset="1" stop-color="#69F3DE"/>
</linearGradient>
<linearGradient id="paint7_linear_2004_3086" x1="573.058" y1="488.542" x2="764.204" y2="488.542" gradientUnits="userSpaceOnUse">
<stop stop-color="#E6FF67"/>
<stop offset="0.333333" stop-color="#DEA6F8"/>
<stop offset="0.666667" stop-color="#DEA6F8"/>
<stop offset="1" stop-color="#69F3DE"/>
</linearGradient>
<linearGradient id="paint8_linear_2004_3086" x1="573.116" y1="488.065" x2="764.263" y2="488.065" gradientUnits="userSpaceOnUse">
<stop stop-color="#E6FF67"/>
<stop offset="0.333333" stop-color="#DEA6F8"/>
<stop offset="0.666667" stop-color="#DEA6F8"/>
<stop offset="1" stop-color="#69F3DE"/>
</linearGradient>
<linearGradient id="paint9_linear_2004_3086" x1="291.116" y1="655.904" x2="482.263" y2="655.904" gradientUnits="userSpaceOnUse">
<stop stop-color="#E6FF67"/>
<stop offset="0.333333" stop-color="#DEA6F8"/>
<stop offset="0.666667" stop-color="#DEA6F8"/>
<stop offset="1" stop-color="#69F3DE"/>
</linearGradient>
<linearGradient id="paint10_linear_2004_3086" x1="291.116" y1="655.904" x2="482.263" y2="655.904" gradientUnits="userSpaceOnUse">
<stop stop-color="#E6FF67"/>
<stop offset="0.333333" stop-color="#DEA6F8"/>
<stop offset="0.666667" stop-color="#DEA6F8"/>
<stop offset="1" stop-color="#69F3DE"/>
</linearGradient>
<linearGradient id="paint11_linear_2004_3086" x1="291.116" y1="656.177" x2="482.263" y2="656.177" gradientUnits="userSpaceOnUse">
<stop stop-color="#E6FF67"/>
<stop offset="0.333333" stop-color="#DEA6F8"/>
<stop offset="0.666667" stop-color="#DEA6F8"/>
<stop offset="1" stop-color="#69F3DE"/>
</linearGradient>
<linearGradient id="paint12_linear_2004_3086" x1="9.1748" y1="813.706" x2="200.321" y2="813.706" gradientUnits="userSpaceOnUse">
<stop stop-color="#E6FF67"/>
<stop offset="0.333333" stop-color="#DEA6F8"/>
<stop offset="0.666667" stop-color="#DEA6F8"/>
<stop offset="1" stop-color="#69F3DE"/>
</linearGradient>
<linearGradient id="paint13_linear_2004_3086" x1="9.1748" y1="813.706" x2="200.321" y2="813.706" gradientUnits="userSpaceOnUse">
<stop stop-color="#E6FF67"/>
<stop offset="0.333333" stop-color="#DEA6F8"/>
<stop offset="0.666667" stop-color="#DEA6F8"/>
<stop offset="1" stop-color="#69F3DE"/>
</linearGradient>
<linearGradient id="paint14_linear_2004_3086" x1="9.11621" y1="813.282" x2="200.263" y2="813.282" gradientUnits="userSpaceOnUse">
<stop stop-color="#E6FF67"/>
<stop offset="0.333333" stop-color="#DEA6F8"/>
<stop offset="0.666667" stop-color="#DEA6F8"/>
<stop offset="1" stop-color="#69F3DE"/>
</linearGradient>
<linearGradient id="paint15_linear_2004_3086" x1="291.116" y1="985.854" x2="482.263" y2="985.854" gradientUnits="userSpaceOnUse">
<stop stop-color="#E6FF67"/>
<stop offset="0.333333" stop-color="#DEA6F8"/>
<stop offset="0.666667" stop-color="#DEA6F8"/>
<stop offset="1" stop-color="#69F3DE"/>
</linearGradient>
<linearGradient id="paint16_linear_2004_3086" x1="291.116" y1="985.854" x2="482.263" y2="985.854" gradientUnits="userSpaceOnUse">
<stop stop-color="#E6FF67"/>
<stop offset="0.333333" stop-color="#DEA6F8"/>
<stop offset="0.666667" stop-color="#DEA6F8"/>
<stop offset="1" stop-color="#69F3DE"/>
</linearGradient>
<linearGradient id="paint17_linear_2004_3086" x1="291.116" y1="985.397" x2="482.263" y2="985.397" gradientUnits="userSpaceOnUse">
<stop stop-color="#E6FF67"/>
<stop offset="0.333333" stop-color="#DEA6F8"/>
<stop offset="0.666667" stop-color="#DEA6F8"/>
<stop offset="1" stop-color="#69F3DE"/>
</linearGradient>
<linearGradient id="paint18_linear_2004_3086" x1="573.058" y1="813.706" x2="764.204" y2="813.706" gradientUnits="userSpaceOnUse">
<stop stop-color="#E6FF67"/>
<stop offset="0.333333" stop-color="#DEA6F8"/>
<stop offset="0.666667" stop-color="#DEA6F8"/>
<stop offset="1" stop-color="#69F3DE"/>
</linearGradient>
<linearGradient id="paint19_linear_2004_3086" x1="573.058" y1="813.706" x2="764.204" y2="813.706" gradientUnits="userSpaceOnUse">
<stop stop-color="#E6FF67"/>
<stop offset="0.333333" stop-color="#DEA6F8"/>
<stop offset="0.666667" stop-color="#DEA6F8"/>
<stop offset="1" stop-color="#69F3DE"/>
</linearGradient>
<linearGradient id="paint20_linear_2004_3086" x1="573.116" y1="813.282" x2="764.263" y2="813.282" gradientUnits="userSpaceOnUse">
<stop stop-color="#E6FF67"/>
<stop offset="0.333333" stop-color="#DEA6F8"/>
<stop offset="0.666667" stop-color="#DEA6F8"/>
<stop offset="1" stop-color="#69F3DE"/>
</linearGradient>
</defs>
</svg>
