<svg width="64" height="64" viewBox="0 0 64 64" fill="none" xmlns="http://www.w3.org/2000/svg">
<mask id="mask0_179_205" style="mask-type:luminance" maskUnits="userSpaceOnUse" x="0" y="0" width="64" height="64">
<path d="M0 0H64V64H0V0Z" fill="white"/>
</mask>
<g mask="url(#mask0_179_205)">
<g opacity="0.75">
<path d="M32 3C48.016 3 61 15.984 61 32C61 48.016 48.016 61 32 61C15.984 61 3 48.016 3 32C3 15.984 15.984 3 32 3Z" fill="white"/>
<path d="M32 4C47.464 4 60 16.536 60 32C60 47.464 47.464 60 32 60C16.536 60 4 47.464 4 32C4 16.536 16.536 4 32 4Z" stroke="#7F7F7F" stroke-width="2"/>
<path d="M32 3C48.016 3 61 15.984 61 32C61 48.016 48.016 61 32 61C15.984 61 3 48.016 3 32C3 15.984 15.984 3 32 3Z" fill="white"/>
<path d="M32 3.5C47.74 3.5 60.5 16.26 60.5 32C60.5 47.74 47.74 60.5 32 60.5C16.26 60.5 3.5 47.74 3.5 32C3.5 16.26 16.26 3.5 32 3.5Z" stroke="white"/>
<path d="M32 1C49.121 1 63 14.879 63 32C63 49.121 49.121 63 32 63C14.879 63 1 49.121 1 32C1 14.879 14.879 1 32 1Z" stroke="white" stroke-opacity="0.2" stroke-width="2"/>
<path d="M25.7 17H38.3C43.1 17 47 20.9 47 25.7V38.3C47 40.607 46.083 42.82 44.452 44.452C42.82 46.083 40.607 47 38.3 47H25.7C20.9 47 17 43.1 17 38.3V25.7C17 23.393 17.917 21.18 19.548 19.548C21.18 17.917 23.393 17 25.7 17ZM25.4 20C23.968 20 22.594 20.569 21.582 21.582C20.569 22.594 20 23.968 20 25.4V38.6C20 41.585 22.415 44 25.4 44H38.6C40.032 44 41.406 43.431 42.418 42.418C43.431 41.406 44 40.032 44 38.6V25.4C44 22.415 41.585 20 38.6 20H25.4ZM39.875 22.25C40.372 22.25 40.849 22.448 41.201 22.799C41.553 23.151 41.75 23.628 41.75 24.125C41.75 24.622 41.553 25.099 41.201 25.451C40.849 25.802 40.372 26 39.875 26C39.378 26 38.901 25.802 38.549 25.451C38.197 25.099 38 24.622 38 24.125C38 23.628 38.197 23.151 38.549 22.799C38.901 22.448 39.378 22.25 39.875 22.25ZM32 24.5C33.989 24.5 35.897 25.29 37.303 26.697C38.71 28.103 39.5 30.011 39.5 32C39.5 33.989 38.71 35.897 37.303 37.303C35.897 38.71 33.989 39.5 32 39.5C30.011 39.5 28.103 38.71 26.697 37.303C25.29 35.897 24.5 33.989 24.5 32C24.5 30.011 25.29 28.103 26.697 26.697C28.103 25.29 30.011 24.5 32 24.5ZM32 27.5C30.807 27.5 29.662 27.974 28.818 28.818C27.974 29.662 27.5 30.807 27.5 32C27.5 33.193 27.974 34.338 28.818 35.182C29.662 36.026 30.807 36.5 32 36.5C33.193 36.5 34.338 36.026 35.182 35.182C36.026 34.338 36.5 33.193 36.5 32C36.5 30.807 36.026 29.662 35.182 28.818C34.338 27.974 33.193 27.5 32 27.5Z" fill="url(#paint0_linear_179_205)"/>
</g>
</g>
<defs>
<linearGradient id="paint0_linear_179_205" x1="32" y1="47.26" x2="32.229" y2="17.102" gradientUnits="userSpaceOnUse">
<stop stop-color="#938C9F"/>
<stop offset="0.5" stop-color="#574B6B"/>
<stop offset="1" stop-color="#1B0A37"/>
</linearGradient>
</defs>
</svg>
