<svg width="87" height="24" viewBox="0 0 87 24" fill="none" xmlns="http://www.w3.org/2000/svg">
<g clip-path="url(#clip0_1_60)">
<path d="M5.38816 17.18C4.44383 18.1792 3.4995 19.2 0.666504 19.2V24C5.67366 24 7.38663 22.1972 9.05568 20.4163C9.97807 19.4389 10.8785 18.4616 13.5357 18.4616V13.6616C8.7043 13.6616 7.05721 15.3991 5.38816 17.18Z" fill="white"/>
<path d="M5.38816 7.55834C4.44383 8.55744 3.4995 9.57828 0.666504 9.57828V14.3783C5.67366 14.3783 7.38663 12.5755 9.05568 10.7946C9.97807 9.81717 10.8785 8.83977 13.5357 8.83977V4.01807C8.7043 4.01807 7.05721 5.79906 5.38816 7.55834Z" fill="white"/>
<path d="M21.9469 19.6995C22.8693 18.7221 23.7696 17.7448 26.427 17.7448V12.9448C21.5956 12.9448 19.9484 14.7041 18.2794 16.4633C17.335 17.4625 16.3908 18.4833 13.5577 18.4833V23.2833C18.5649 23.2833 20.2558 21.4805 21.9469 19.6995Z" fill="white"/>
<path d="M21.9469 10.0778C22.8693 9.10043 23.7696 8.12305 26.427 8.12305V3.30133C21.5956 3.30133 19.9484 5.06061 18.2794 6.81989C17.335 7.81898 16.3908 8.83978 13.5577 8.83978V13.6398C18.5649 13.6615 20.2558 11.8588 21.9469 10.0778Z" fill="white"/>
<path d="M38.9668 23.5004C36.2656 23.5004 34.882 22.1321 34.882 19.4606V10.5339H31.8953V7.64523H34.882V3.30133H38.4836V7.64523H42.6783V10.5339H38.4836V18.9176C38.4836 20.0253 38.9888 20.5465 40.0868 20.5465H42.9198V23.5004H38.9668Z" fill="white"/>
<path d="M44.2814 2.19367C44.2814 0.955654 45.3135 0 46.5654 0C47.8391 0 48.8493 0.955654 48.8493 2.19367C48.8493 3.43167 47.861 4.38733 46.5654 4.38733C45.3135 4.38733 44.2814 3.43167 44.2814 2.19367ZM44.7645 23.5005V7.64525H48.3662V23.4788H44.7645V23.5005Z" fill="white"/>
<path d="M64.332 23.5005V21.2633C63.212 22.914 61.2135 24 58.644 24C54.0542 24 50.5184 20.5466 50.5184 15.5512C50.5184 10.6642 54.0542 7.14572 58.5781 7.14572C61.1476 7.14572 63.168 8.29685 64.288 10.0996V0.629883H67.8897V23.4788H64.332V23.5005ZM59.4127 21.0244C61.6527 21.0244 63.5853 19.7647 64.288 17.8751V15.8118C64.288 12.3801 62.2017 10.1212 59.2589 10.1212C56.2722 10.1212 54.2737 12.4018 54.2737 15.5512C54.2737 18.7222 56.3381 21.0244 59.4127 21.0244Z" fill="white"/>
<path d="M86.3371 20.9158C84.668 22.8488 82.1425 24 79.0899 24C73.6875 24 69.9101 20.5032 69.9101 15.5946C69.9101 10.6425 73.5777 7.14569 78.5189 7.14569C83.2405 7.14569 86.6665 10.5774 86.6665 15.4425V16.7023H73.6875C74.1706 19.4606 76.2788 21.1547 79.2436 21.1547C81.3079 21.1547 82.977 20.3294 84.2727 18.7004L86.3371 20.9158ZM73.6875 14.2914H83.021C82.6696 11.6851 80.9127 10.0126 78.453 10.0126C75.9494 9.99093 74.1047 11.6416 73.6875 14.2914Z" fill="white"/>
</g>
<defs>
<clipPath id="clip0_1_60">
<rect width="86" height="24" fill="white" transform="translate(0.666504)"/>
</clipPath>
</defs>
</svg>
