<svg width="158" height="32" viewBox="0 0 158 32" fill="none" xmlns="http://www.w3.org/2000/svg">
<g clip-path="url(#clip0_1_50)">
<path d="M28.4636 7.38924L17.6015 13.3114C17.0494 12.7124 16.3034 12.2902 15.5027 12.1337V0L17.6579 1.21303V10.7575L19.4815 9.76314V4.71081C19.4815 3.92175 20.1131 3.28073 20.8906 3.28073C22.7109 3.34804 22.7789 5.96591 20.9735 6.1392V8.95726L26.2404 6.08535L28.4636 7.38755V7.38924Z" fill="white"/>
<path d="M29.082 8.41888L18.6227 14.6809C18.8382 15.4582 18.8068 16.3112 18.5283 17.0767L29.082 23.2234V21.0416L20.7895 15.9175L22.4971 14.8945L26.7726 17.5225C27.4374 17.9313 28.3044 17.716 28.7073 17.0413C29.5942 15.4279 27.4225 14.0096 26.3416 15.4885L23.956 14.0214L29.0272 10.9846L29.082 8.41888Z" fill="white"/>
<path d="M0.416504 8.49792L10.9172 14.6809C10.7016 15.4582 10.7331 16.3111 11.0117 17.0766L0.418163 23.3688L0.416504 20.7507L8.75204 15.9174L7.0445 14.8945L2.76896 17.5225C2.10417 17.9313 1.23713 17.716 0.834277 17.0413C-0.0526606 15.4279 2.11909 14.0096 3.19999 15.4884L5.5856 14.0214L0.416504 10.8598L0.418163 8.49792H0.416504Z" fill="white"/>
<path d="M1.27527 7.45991L11.8091 13.2037C12.3429 12.6233 13.0674 12.2145 13.8449 12.0631V0.0471191L11.8555 1.16762V10.7592L10.0319 9.76484V4.71251C10.0319 3.92344 9.40027 3.28243 8.62274 3.28243C6.80246 3.34974 6.73449 5.9676 8.53984 6.14087V8.9825L3.43209 6.19809L1.27527 7.45991Z" fill="white"/>
<path d="M28.4636 24.545L17.6015 18.6229C17.0494 19.2218 16.3034 19.6441 15.5027 19.8006V31.936L17.6579 30.7229V21.1785L19.4815 22.1728V27.2251C19.4815 28.0142 20.1131 28.6552 20.8906 28.6552C22.7109 28.5879 22.7789 25.97 20.9735 25.7967V22.9787L26.2404 25.8506L28.4636 24.5484V24.545Z" fill="white"/>
<path d="M1.27527 24.4744L11.8091 18.7305C12.3429 19.311 13.0674 19.7198 13.8449 19.8712V31.8854L11.8555 30.7648V21.1734L10.0319 22.1677V27.2201C10.0319 28.0091 9.40027 28.6501 8.62274 28.6501C6.80246 28.5828 6.73449 25.965 8.53984 25.7917V22.95L3.43209 25.7345L1.27527 24.4727V24.4744Z" fill="white"/>
<path d="M34.5903 24.4043V7.50831H40.6949C41.5695 7.50831 42.3598 7.57658 43.0661 7.71311C43.7724 7.84966 44.4031 8.05443 44.958 8.32751C45.513 8.60058 45.984 8.94191 46.3707 9.35151C46.7573 9.74406 47.0434 10.2049 47.2283 10.7339C47.4301 11.2459 47.531 11.8177 47.531 12.4491C47.531 13.0465 47.4384 13.5926 47.2535 14.0875C47.0853 14.5654 46.8164 14.9921 46.4463 15.3675C46.0932 15.743 45.6474 16.0502 45.1094 16.2891C44.588 16.511 43.9742 16.6646 43.2679 16.7499V17.0827C43.9573 17.1681 44.5375 17.3473 45.0085 17.6203C45.4794 17.8934 45.8745 18.2774 46.1941 18.7723C46.5137 19.2673 46.7826 19.9158 47.0013 20.7179L48.0355 24.4043H45.0337L44.2265 21.0251C44.0582 20.3425 43.806 19.7963 43.4697 19.3867C43.1335 18.9601 42.7129 18.6529 42.2084 18.4651C41.7039 18.2774 41.1068 18.1835 40.4174 18.1835H37.3399V24.4043H34.5903ZM37.3399 15.9819H40.4931C41.8722 15.9819 42.9147 15.7259 43.6211 15.2139C44.3443 14.7019 44.7058 13.9169 44.7058 12.8587C44.7058 11.8006 44.3609 11.0241 43.6715 10.5291C42.9987 10.0171 41.9562 9.76111 40.5435 9.76111H37.3399V15.9819ZM53.06 24.7371C52.3368 24.7371 51.6892 24.6006 51.1177 24.3275C50.5458 24.0374 50.0917 23.6107 49.7555 23.0475C49.4358 22.4843 49.2762 21.7846 49.2762 20.9483C49.2762 20.2827 49.3937 19.711 49.6293 19.2331C49.8816 18.7382 50.2514 18.3286 50.7393 18.0043C51.2438 17.663 51.8827 17.3899 52.6564 17.1851C53.4298 16.9633 54.3465 16.7755 55.406 16.6219C55.9945 16.5366 56.4738 16.4513 56.8439 16.3659C57.2306 16.2806 57.508 16.1441 57.6763 15.9563C57.8612 15.7686 57.9538 15.487 57.9538 15.1115C57.9538 14.5313 57.752 14.0363 57.3484 13.6267C56.9614 13.2001 56.3307 12.9867 55.4565 12.9867C54.9686 12.9867 54.481 13.0721 53.9934 13.2427C53.5224 13.4134 53.1105 13.695 52.7573 14.0875C52.4208 14.463 52.1938 14.975 52.0762 15.6235L49.6041 14.8299C49.7555 14.1814 49.9991 13.6097 50.3357 13.1147C50.6719 12.6027 51.0924 12.1761 51.5969 11.8347C52.1015 11.4763 52.6816 11.2118 53.3375 11.0411C54.01 10.8534 54.7415 10.7595 55.5321 10.7595C56.6925 10.7595 57.6511 10.9558 58.4079 11.3483C59.1646 11.7409 59.7279 12.3467 60.098 13.1659C60.4847 13.9681 60.6782 15.0006 60.6782 16.2635V18.9771C60.6782 19.5403 60.6865 20.1377 60.7034 20.7691C60.7369 21.3835 60.7705 22.0065 60.8043 22.6379C60.8547 23.2523 60.9135 23.8411 60.9809 24.4043H58.4835C58.4331 23.8923 58.3826 23.3633 58.3322 22.8171C58.2983 22.271 58.2648 21.7163 58.2313 21.1531H57.8529C57.6173 21.8017 57.281 22.399 56.8439 22.9451C56.4233 23.4913 55.8936 23.9265 55.2547 24.2507C54.6323 24.575 53.9008 24.7371 53.06 24.7371ZM54.0186 22.5867C54.3718 22.5867 54.7249 22.527 55.0781 22.4075C55.4479 22.2881 55.8096 22.1089 56.1628 21.8699C56.5326 21.6139 56.8691 21.2897 57.1718 20.8971C57.4911 20.5046 57.7686 20.0353 58.0042 19.4891L57.979 17.0827L58.6349 17.2107C58.3488 17.4667 57.9873 17.663 57.5502 17.7995C57.1297 17.9361 56.6673 18.047 56.1628 18.1323C55.6583 18.2006 55.1537 18.2859 54.6492 18.3883C54.1614 18.4737 53.7073 18.6017 53.2871 18.7723C52.8834 18.9259 52.5555 19.1478 52.3033 19.4379C52.0676 19.7281 51.9501 20.1291 51.9501 20.6411C51.9501 21.2726 52.1433 21.759 52.5303 22.1003C52.917 22.4246 53.4132 22.5867 54.0186 22.5867ZM63.3363 28.6027V17.7995V11.0923H65.7078L65.6318 14.5995L66.0357 14.6251C66.2206 13.823 66.4981 13.1403 66.8679 12.5771C67.238 11.9969 67.7089 11.5531 68.2808 11.2459C68.8693 10.9217 69.5673 10.7595 70.3742 10.7595C71.5515 10.7595 72.5439 11.0582 73.3512 11.6555C74.175 12.2529 74.789 13.0806 75.1926 14.1387C75.6129 15.1969 75.8233 16.4086 75.8233 17.7739C75.8233 19.1051 75.6215 20.2998 75.2176 21.3579C74.8309 22.399 74.2424 23.2267 73.452 23.8411C72.6615 24.4385 71.6946 24.7371 70.5511 24.7371C69.6596 24.7371 68.9198 24.5579 68.331 24.1995C67.7425 23.8241 67.2632 23.3377 66.8931 22.7403C66.5233 22.1259 66.2372 21.4518 66.0357 20.7179H65.5814C65.6823 21.1787 65.7666 21.6566 65.8336 22.1515C65.901 22.6294 65.9598 23.1073 66.0102 23.5851C66.061 24.063 66.0862 24.5153 66.0862 24.9419V28.6027H63.3363ZM69.7439 22.4075C70.4333 22.4075 71.0135 22.2113 71.4845 21.8187C71.9721 21.4091 72.3421 20.8545 72.5944 20.1547C72.8466 19.455 72.9728 18.6529 72.9728 17.7483C72.9728 16.8097 72.838 15.999 72.5692 15.3163C72.3169 14.6337 71.9468 14.1046 71.4592 13.7291C70.9713 13.3366 70.3912 13.1403 69.7184 13.1403C69.1299 13.1403 68.6084 13.2769 68.1544 13.5499C67.7003 13.823 67.3136 14.1814 66.9943 14.6251C66.6913 15.0518 66.456 15.5297 66.2877 16.0587C66.1363 16.5707 66.061 17.0742 66.061 17.5691V17.9531C66.061 18.2945 66.1114 18.6614 66.2123 19.0539C66.3129 19.4465 66.456 19.839 66.6411 20.2315C66.8429 20.6241 67.0866 20.991 67.3727 21.3323C67.6754 21.6566 68.02 21.9211 68.4069 22.1259C68.8105 22.3137 69.256 22.4075 69.7439 22.4075ZM77.921 24.4043V11.0923H80.6454V24.4043H77.921ZM79.2832 8.86511C78.6947 8.86511 78.2489 8.74563 77.9462 8.50671C77.6435 8.25071 77.4922 7.87526 77.4922 7.38031C77.4922 6.90246 77.6435 6.53551 77.9462 6.27951C78.2489 6.02351 78.6947 5.89551 79.2832 5.89551C79.8886 5.89551 80.3427 6.02351 80.6454 6.27951C80.9481 6.53551 81.0994 6.90246 81.0994 7.38031C81.0994 7.87526 80.9481 8.25071 80.6454 8.50671C80.3427 8.74563 79.8886 8.86511 79.2832 8.86511ZM88.1067 24.7371C86.9968 24.7371 86.0382 24.447 85.231 23.8667C84.4238 23.2694 83.81 22.4502 83.3895 21.4091C82.9693 20.351 82.7589 19.1307 82.7589 17.7483C82.7589 16.4001 82.9524 15.2054 83.3391 14.1643C83.7427 13.1062 84.3315 12.2785 85.1048 11.6811C85.8954 11.0838 86.8623 10.7851 88.0058 10.7851C88.9139 10.7851 89.6624 10.9729 90.2509 11.3483C90.8397 11.7067 91.3103 12.2017 91.6635 12.8331C92.0336 13.4646 92.3111 14.1643 92.4959 14.9323H93.0005C92.9165 14.4374 92.8325 13.9254 92.7482 13.3963C92.6642 12.8502 92.5968 12.3297 92.5464 11.8347C92.4959 11.3227 92.4707 10.8705 92.4707 10.4779V6.35631H95.2455V17.8507V24.4043H92.8491L92.95 20.7179H92.4959C92.2941 21.5542 92.0083 22.271 91.6383 22.8683C91.2685 23.4657 90.7892 23.9265 90.2004 24.2507C89.6288 24.575 88.9308 24.7371 88.1067 24.7371ZM88.8635 22.3819C89.4522 22.3819 89.9734 22.2454 90.4274 21.9723C90.8815 21.6993 91.2599 21.3409 91.5626 20.8971C91.8653 20.4534 92.0923 19.9755 92.2437 19.4635C92.412 18.9345 92.4959 18.4395 92.4959 17.9787V17.6203C92.4959 17.279 92.4455 16.9121 92.3446 16.5195C92.2606 16.1099 92.1176 15.7089 91.9158 15.3163C91.7309 14.9067 91.4955 14.5398 91.2094 14.2155C90.9236 13.8913 90.5788 13.6353 90.1752 13.4475C89.7885 13.2427 89.3513 13.1403 88.8635 13.1403C88.1571 13.1403 87.5603 13.3451 87.0724 13.7547C86.6018 14.1473 86.24 14.6934 85.9877 15.3931C85.7355 16.0929 85.6094 16.895 85.6094 17.7995C85.6094 18.7211 85.7355 19.5318 85.9877 20.2315C86.2569 20.9142 86.6353 21.4433 87.1229 21.8187C87.6108 22.1942 88.191 22.3819 88.8635 22.3819ZM98.1766 24.4043V7.50831H101.809L110.159 20.6923H110.386L110.209 7.50831H112.883V24.4043H109.579L100.901 10.8107H100.674L100.85 24.4043H98.1766ZM121.538 24.7371C120.276 24.7371 119.158 24.4641 118.183 23.9179C117.207 23.3718 116.442 22.5782 115.887 21.5371C115.349 20.4961 115.08 19.2161 115.08 17.6971C115.08 16.1441 115.366 14.8555 115.938 13.8315C116.51 12.8075 117.275 12.0395 118.233 11.5275C119.209 11.0155 120.302 10.7595 121.513 10.7595C122.757 10.7595 123.867 11.024 124.842 11.5531C125.818 12.0822 126.583 12.8673 127.138 13.9083C127.71 14.9494 127.996 16.2465 127.996 17.7995C127.996 19.3355 127.71 20.6241 127.138 21.6651C126.583 22.6891 125.818 23.4571 124.842 23.9691C123.867 24.4811 122.766 24.7371 121.538 24.7371ZM121.639 22.5355C122.395 22.5355 123.043 22.3563 123.581 21.9979C124.119 21.6395 124.531 21.1105 124.817 20.4107C125.103 19.711 125.246 18.8747 125.246 17.9019C125.246 16.895 125.095 16.0331 124.792 15.3163C124.489 14.5825 124.052 14.0193 123.48 13.6267C122.925 13.2342 122.244 13.0379 121.437 13.0379C120.714 13.0379 120.075 13.2171 119.52 13.5755C118.982 13.9169 118.569 14.4374 118.284 15.1371C117.998 15.8198 117.855 16.6561 117.855 17.6459C117.855 19.199 118.191 20.4022 118.864 21.2555C119.537 22.1089 120.461 22.5355 121.639 22.5355ZM134.693 24.7371C133.583 24.7371 132.625 24.447 131.817 23.8667C131.01 23.2694 130.397 22.4502 129.976 21.4091C129.556 20.351 129.345 19.1307 129.345 17.7483C129.345 16.4001 129.539 15.2054 129.926 14.1643C130.329 13.1062 130.918 12.2785 131.691 11.6811C132.482 11.0838 133.449 10.7851 134.592 10.7851C135.5 10.7851 136.249 10.9729 136.837 11.3483C137.426 11.7067 137.897 12.2017 138.25 12.8331C138.62 13.4646 138.898 14.1643 139.082 14.9323H139.587C139.503 14.4374 139.419 13.9254 139.335 13.3963C139.251 12.8502 139.183 12.3297 139.133 11.8347C139.082 11.3227 139.057 10.8705 139.057 10.4779V6.35631H141.832V17.8507V24.4043H139.436L139.537 20.7179H139.082C138.881 21.5542 138.595 22.271 138.225 22.8683C137.855 23.4657 137.376 23.9265 136.787 24.2507C136.215 24.575 135.517 24.7371 134.693 24.7371ZM135.45 22.3819C136.039 22.3819 136.56 22.2454 137.014 21.9723C137.468 21.6993 137.846 21.3409 138.149 20.8971C138.452 20.4534 138.679 19.9755 138.83 19.4635C138.998 18.9345 139.082 18.4395 139.082 17.9787V17.6203C139.082 17.279 139.032 16.9121 138.931 16.5195C138.847 16.1099 138.704 15.7089 138.502 15.3163C138.317 14.9067 138.082 14.5398 137.796 14.2155C137.51 13.8913 137.165 13.6353 136.762 13.4475C136.375 13.2427 135.938 13.1403 135.45 13.1403C134.744 13.1403 134.147 13.3451 133.659 13.7547C133.188 14.1473 132.827 14.6934 132.574 15.3931C132.322 16.0929 132.196 16.895 132.196 17.7995C132.196 18.7211 132.322 19.5318 132.574 20.2315C132.843 20.9142 133.222 21.4433 133.709 21.8187C134.197 22.1942 134.777 22.3819 135.45 22.3819ZM150.363 24.7371C149.321 24.7371 148.396 24.5835 147.588 24.2763C146.781 23.9521 146.1 23.4998 145.545 22.9195C144.99 22.3222 144.57 21.6139 144.284 20.7947C143.998 19.9585 143.855 19.0198 143.855 17.9787C143.855 16.9377 143.998 15.9819 144.284 15.1115C144.57 14.2241 144.973 13.4561 145.495 12.8075C146.033 12.159 146.689 11.6555 147.462 11.2971C148.253 10.9387 149.144 10.7595 150.136 10.7595C151.061 10.7595 151.885 10.9131 152.608 11.2203C153.348 11.5275 153.97 11.9969 154.475 12.6283C154.979 13.2427 155.358 14.0193 155.61 14.9579C155.862 15.8795 155.955 16.9633 155.888 18.2091L145.621 18.2859V16.5451L154.273 16.4683L153.315 17.5435C153.415 16.5195 153.331 15.6747 153.062 15.0091C152.793 14.3435 152.406 13.8486 151.902 13.5243C151.397 13.2001 150.817 13.0379 150.161 13.0379C149.422 13.0379 148.774 13.2342 148.219 13.6267C147.681 14.0022 147.26 14.5569 146.958 15.2907C146.655 16.0246 146.504 16.9035 146.504 17.9275C146.504 19.4635 146.84 20.6241 147.513 21.4091C148.185 22.1771 149.144 22.5611 150.388 22.5611C150.91 22.5611 151.355 22.5014 151.725 22.3819C152.095 22.2454 152.406 22.0747 152.659 21.8699C152.911 21.6481 153.113 21.3921 153.264 21.1019C153.432 20.7947 153.567 20.479 153.668 20.1547L156.064 20.7179C155.913 21.3494 155.677 21.9126 155.358 22.4075C155.055 22.8854 154.668 23.3035 154.197 23.6619C153.726 24.0033 153.172 24.2678 152.533 24.4555C151.91 24.6433 151.187 24.7371 150.363 24.7371Z" fill="white"/>
</g>
<defs>
<clipPath id="clip0_1_50">
<rect width="156.8" height="32" fill="white" transform="translate(0.416504)"/>
</clipPath>
</defs>
</svg>
