<svg width="119" height="22" viewBox="0 0 119 22" fill="none" xmlns="http://www.w3.org/2000/svg">
<g clip-path="url(#clip0_1_73)">
<path d="M9.48827 6.40137C8.786 4.87695 8.63011 3.07056 7.6382 1.71206C6.88107 0.675064 5.64706 6.01438e-08 4.25331 0C1.95039 -9.93824e-08 0.0834962 1.84308 0.0834961 4.11663C0.083496 5.46218 0.737419 6.65699 1.74864 7.40818C3.14166 8.44297 5.02882 8.61389 6.60501 9.34927C9.20048 10.5602 11.2733 12.6454 12.4511 15.2301L12.7031 15.7831C13.3313 17.1618 13.551 18.7621 14.4721 19.9697C15.233 20.9673 16.4428 21.6123 17.8052 21.6123C20.1081 21.6123 21.975 19.7692 21.975 17.4957C21.975 16.1161 21.2876 14.895 20.2325 14.1481C18.8831 13.1927 17.0756 13.0229 15.5612 12.3503C12.8872 11.1628 10.7021 9.03634 9.48827 6.40137Z" fill="white"/>
<path d="M0.0834961 17.4957C0.0834961 15.2222 1.95038 13.3791 4.25331 13.3791C6.55625 13.3791 8.42314 15.2222 8.42314 17.4957C8.42314 19.7693 6.55625 21.6124 4.25331 21.6124C1.95038 21.6124 0.0834961 19.7693 0.0834961 17.4957Z" fill="white"/>
<path d="M13.6354 4.11665C13.6354 1.84309 15.5023 0 17.8052 0C20.1081 0 21.975 1.84309 21.975 4.11665C21.975 6.39021 20.1081 8.23329 17.8052 8.23329C15.5023 8.23329 13.6354 6.39021 13.6354 4.11665Z" fill="white"/>
<path d="M44.63 21.6125L34.6054 3.15988V21.6125H31.5254V0H36.0546L46.0491 18.3929V0H49.1291V21.6125H44.63Z" fill="white"/>
<path d="M54.4118 0V2.71264H51.6642V0H54.4118ZM54.4118 5.57449V21.6125H51.6642V5.57449H54.4118Z" fill="white"/>
<path d="M59.4994 21.6126H56.7516V5.5745H59.4994V7.98916C60.4354 6.46901 61.9449 5.30615 64.3908 5.30615C66.8368 5.30615 68.3463 6.34942 69.0715 8.13792C70.3699 6.14042 72.2417 5.30615 74.5365 5.30615C78.311 5.30615 79.7908 7.81028 79.7908 11.4767V21.6121H77.0429V12.2817C77.0429 9.8073 76.5601 7.66104 73.5703 7.66104C71.1854 7.66104 69.6451 9.41984 69.6451 12.9074V21.6121H66.8973V12.2817C66.8973 9.8073 66.4144 7.66104 63.4246 7.66104C61.0397 7.66104 59.4994 9.41984 59.4994 12.9074V21.6126Z" fill="white"/>
<path d="M84.5909 0V8.10826C85.5874 6.40918 87.2783 5.30614 89.9052 5.30614C93.6494 5.30614 96.8499 8.40625 96.8499 13.6531C96.8499 18.8999 93.6494 22 89.9052 22C87.2778 22 85.5868 20.897 84.5909 19.1979V21.6125H81.8431V0H84.5909ZM89.2112 19.6748C92.0195 19.6748 93.8611 17.5582 93.8611 13.6531C93.8611 9.74794 92.019 7.63133 89.2112 7.63133C86.7652 7.63133 84.4705 9.41982 84.4705 13.6531C84.4705 17.8863 86.7652 19.6748 89.2112 19.6748Z" fill="white"/>
<path d="M101.14 21.6125H98.3922V0H101.14V21.6125Z" fill="white"/>
<path d="M105.55 14.4878C105.64 17.9457 108.177 19.6151 110.562 19.6151C112.947 19.6151 114.306 18.5417 115 16.9618H117.839C117.114 19.7045 114.517 21.9995 110.562 21.9995C105.429 21.9995 102.59 18.3628 102.59 13.623C102.59 8.52538 106.033 5.30615 110.471 5.30615C115.453 5.30615 118.382 9.39019 118.05 14.4878H105.549H105.55ZM105.579 12.1626H115.152C115.061 9.89719 113.4 7.63134 110.471 7.63134C108.056 7.63134 105.821 8.94296 105.579 12.1626Z" fill="white"/>
</g>
<defs>
<clipPath id="clip0_1_73">
<rect width="118" height="22" fill="white" transform="translate(0.0834961)"/>
</clipPath>
</defs>
</svg>
