<svg width="64" height="64" viewBox="0 0 64 64" fill="none" xmlns="http://www.w3.org/2000/svg">
<mask id="mask0_180_243" style="mask-type:luminance" maskUnits="userSpaceOnUse" x="0" y="0" width="64" height="64">
<path d="M0 0H64V64H0V0Z" fill="white"/>
</mask>
<g mask="url(#mask0_180_243)">
<g opacity="0.75">
<path d="M32 3C48.016 3 61 15.984 61 32C61 48.016 48.016 61 32 61C15.984 61 3 48.016 3 32C3 15.984 15.984 3 32 3Z" fill="white"/>
<path d="M32 4C47.464 4 60 16.536 60 32C60 47.464 47.464 60 32 60C16.536 60 4 47.464 4 32C4 16.536 16.536 4 32 4Z" stroke="#7F7F7F" stroke-width="2"/>
<path d="M32 3C48.016 3 61 15.984 61 32C61 48.016 48.016 61 32 61C15.984 61 3 48.016 3 32C3 15.984 15.984 3 32 3Z" fill="white"/>
<path d="M32 3.5C47.74 3.5 60.5 16.26 60.5 32C60.5 47.74 47.74 60.5 32 60.5C16.26 60.5 3.5 47.74 3.5 32C3.5 16.26 16.26 3.5 32 3.5Z" stroke="white"/>
<path d="M32 1C49.121 1 63 14.879 63 32C63 49.121 49.121 63 32 63C14.879 63 1 49.121 1 32C1 14.879 14.879 1 32 1Z" stroke="white" stroke-opacity="0.2" stroke-width="2"/>
<path d="M26.385 46L18 37.616C18 39.311 18.063 40.882 18.312 42.313C18.545 43.744 18.778 44.6 19.105 44.896C19.4 45.222 20.24 45.456 21.656 45.704C23.072 45.953 24.643 46 26.385 46ZM37.445 28.718L28.718 37.444L26.556 35.282L35.283 26.556L37.445 28.718ZM18.452 33.68L30.32 45.549C34.645 44.771 38.067 43.122 40.603 40.602C43.123 38.067 44.772 34.644 45.549 30.32L33.68 18.451C29.356 19.229 25.934 20.878 23.398 23.398C20.863 25.918 19.229 29.356 18.452 33.68ZM37.616 18L46 26.384C46 24.689 45.938 23.118 45.705 21.687C45.456 20.256 45.223 19.4 44.896 19.104C44.6 18.778 43.76 18.544 42.345 18.311C40.929 18.078 39.358 18 37.616 18Z" fill="url(#paint0_linear_180_243)"/>
</g>
</g>
<defs>
<linearGradient id="paint0_linear_180_243" x1="32.033" y1="46.122" x2="32.565" y2="18.188" gradientUnits="userSpaceOnUse">
<stop stop-color="#938C9F"/>
<stop offset="0.5" stop-color="#574B6B"/>
<stop offset="1" stop-color="#1B0A37"/>
</linearGradient>
</defs>
</svg>
