<svg width="64" height="64" viewBox="0 0 64 64" fill="none" xmlns="http://www.w3.org/2000/svg">
<path d="M32 3C48.016 3 61 15.984 61 32C61 48.016 48.016 61 32 61C15.984 61 3 48.016 3 32C3 15.984 15.984 3 32 3Z" fill="white"/>
<path d="M32 4C47.464 4 60 16.536 60 32C60 47.464 47.464 60 32 60C16.536 60 4 47.464 4 32C4 16.536 16.536 4 32 4Z" stroke="#7F7F7F" stroke-width="2"/>
<path d="M32 3C48.016 3 61 15.984 61 32C61 48.016 48.016 61 32 61C15.984 61 3 48.016 3 32C3 15.984 15.984 3 32 3Z" fill="white"/>
<path d="M32 3.5C47.74 3.5 60.5 16.26 60.5 32C60.5 47.74 47.74 60.5 32 60.5C16.26 60.5 3.5 47.74 3.5 32C3.5 16.26 16.26 3.5 32 3.5Z" stroke="white"/>
<path d="M32 1C49.121 1 63 14.879 63 32C63 49.121 49.121 63 32 63C14.879 63 1 49.121 1 32C1 14.879 14.879 1 32 1Z" stroke="white" stroke-opacity="0.2" stroke-width="2"/>
<path d="M38.69 22.233C37.663 21.061 37.096 19.557 37.097 17.999H32.454V36.615C32.419 37.623 31.995 38.577 31.269 39.278C30.543 39.978 29.573 40.369 28.564 40.368C26.431 40.368 24.657 38.627 24.657 36.465C24.657 33.883 27.151 31.946 29.72 32.742V27.998C24.537 27.307 20 31.331 20 36.465C20 41.464 24.147 45.022 28.549 45.022C33.267 45.022 37.097 41.194 37.097 36.465V27.022C38.979 28.373 41.24 29.098 43.558 29.094V24.455C43.558 24.455 40.733 24.59 38.69 22.233Z" fill="url(#paint0_linear_179_170)"/>
<defs>
<linearGradient id="paint0_linear_179_170" x1="32.05" y1="45.835" x2="32.181" y2="18.175" gradientUnits="userSpaceOnUse">
<stop stop-color="#938C9F"/>
<stop offset="0.5" stop-color="#574B6B"/>
<stop offset="1" stop-color="#1B0A37"/>
</linearGradient>
</defs>
</svg>
