<svg width="1440" height="368" viewBox="0 0 1440 368" fill="none" xmlns="http://www.w3.org/2000/svg">
<path opacity="0.2" d="M623.047 325.7L664.322 367L906.276 367L1013.02 260.191L1040.06 260.191L1091.3 208.922L1440 208.922M651.512 308.611L684.247 341.366L897.737 341.366L1018.71 220.315L957.514 220.315L894.89 282.977L697.057 282.977M746.871 254.494L877.811 254.494L936.165 196.105L1440 196.105M782.452 231.708L822.304 231.708L913.393 140.564L1257.82 140.564L1297.67 180.44L1440 180.44M698.48 70.7821L819.457 70.7821L846.499 97.8405L1044.33 97.8404L1092.72 49.4202L1230.78 49.4202L1289.13 107.809L1324.72 107.809L1357.45 140.564L1440 140.564M559 0.999994L857.885 0.999968L892.044 35.179L1062.84 35.1789L1088.45 9.5447L1242.17 9.54468L1310.48 77.9027L1440 77.9027M1440 253.07L1132.58 253.07L1081.34 304.339L968.9 304.339M1440 288.673L1159.22 288.673L1104.11 339.942L933.318 339.942" stroke="url(#paint0_linear_2011_209)" stroke-width="2"/>
<path opacity="0.2" d="M816.953 325.7L775.678 367L533.724 367L426.979 260.191L399.937 260.191L348.699 208.922L1.38196e-05 208.922M788.488 308.611L755.753 341.366L542.263 341.366L421.286 220.315L482.486 220.315L545.11 282.977L742.943 282.977M693.129 254.494L562.189 254.494L503.835 196.105L1.49401e-05 196.105M657.548 231.708L617.696 231.708L526.607 140.564L182.178 140.564L142.326 180.44L1.63096e-05 180.44M741.52 70.7821L620.543 70.7821L593.501 97.8405L395.667 97.8404L347.276 49.4202L209.22 49.4202L150.866 107.809L115.284 107.809L82.5493 140.564L1.97957e-05 140.564M881 0.999994L582.115 0.999968L547.956 35.179L377.165 35.1789L351.546 9.5447L197.834 9.54468L129.517 77.9027L2.52737e-05 77.9027M9.96008e-06 253.07L307.425 253.07L358.662 304.339L471.1 304.339M6.84755e-06 288.673L280.783 288.673L335.89 339.942L506.682 339.942" stroke="url(#paint1_linear_2011_209)" stroke-width="2"/>
<defs>
<linearGradient id="paint0_linear_2011_209" x1="1017.63" y1="184" x2="1440" y2="184" gradientUnits="userSpaceOnUse">
<stop stop-color="#13002F" stop-opacity="0"/>
<stop offset="1" stop-color="#13002F"/>
</linearGradient>
<linearGradient id="paint1_linear_2011_209" x1="422.372" y1="184" x2="4.0751e-09" y2="184" gradientUnits="userSpaceOnUse">
<stop stop-color="#13002F" stop-opacity="0"/>
<stop offset="1" stop-color="#13002F"/>
</linearGradient>
</defs>
</svg>
