<svg width="48" height="49" viewBox="0 0 48 49" fill="none" xmlns="http://www.w3.org/2000/svg">
<circle cx="24" cy="24.5" r="24" fill="url(#paint0_radial_359_430)" fill-opacity="0.8"/>
<circle cx="24" cy="24.5" r="23.5" stroke="white" stroke-opacity="0.24"/>
<g clip-path="url(#clip0_359_430)" filter="url(#filter0_d_359_430)">
<mask id="mask0_359_430" style="mask-type:luminance" maskUnits="userSpaceOnUse" x="13" y="14" width="22" height="21">
<path d="M13.7139 14.2148H34.2853V34.7863H13.7139V14.2148Z" fill="white"/>
</mask>
<g mask="url(#mask0_359_430)">
<path d="M29.9139 15.1797H33.0686L26.1772 23.0762L34.2853 33.8233H27.9375L22.9622 27.3065L17.2757 33.8233H14.1179L21.4884 25.3743L13.7139 15.1812H20.2233L24.7137 21.1366L29.9139 15.1797ZM28.8045 31.9307H30.5531L19.2682 16.9738H17.3932L28.8045 31.9307Z" fill="url(#paint1_linear_359_430)"/>
</g>
</g>
<defs>
<filter id="filter0_d_359_430" x="9.71387" y="14.2148" width="28.5714" height="28.5715" filterUnits="userSpaceOnUse" color-interpolation-filters="sRGB">
<feFlood flood-opacity="0" result="BackgroundImageFix"/>
<feColorMatrix in="SourceAlpha" type="matrix" values="0 0 0 0 0 0 0 0 0 0 0 0 0 0 0 0 0 0 127 0" result="hardAlpha"/>
<feOffset dy="4"/>
<feGaussianBlur stdDeviation="2"/>
<feComposite in2="hardAlpha" operator="out"/>
<feColorMatrix type="matrix" values="0 0 0 0 0 0 0 0 0 0 0 0 0 0 0 0 0 0 0.25 0"/>
<feBlend mode="normal" in2="BackgroundImageFix" result="effect1_dropShadow_359_430"/>
<feBlend mode="normal" in="SourceGraphic" in2="effect1_dropShadow_359_430" result="shape"/>
</filter>
<radialGradient id="paint0_radial_359_430" cx="0" cy="0" r="1" gradientUnits="userSpaceOnUse" gradientTransform="translate(24 24.5) rotate(90) scale(24)">
<stop/>
<stop offset="1" stop-color="#13002F"/>
</radialGradient>
<linearGradient id="paint1_linear_359_430" x1="23.9996" y1="15.1797" x2="23.9996" y2="33.8233" gradientUnits="userSpaceOnUse">
<stop stop-color="white"/>
<stop offset="1" stop-color="white" stop-opacity="0.4"/>
</linearGradient>
<clipPath id="clip0_359_430">
<rect width="20.5714" height="20.5714" fill="white" transform="translate(13.7139 14.2148)"/>
</clipPath>
</defs>
</svg>
